<?xml version="1.0" encoding="utf-8" standalone="no"?>
<!DOCTYPE svg PUBLIC "-//W3C//DTD SVG 1.1//EN"
  "http://www.w3.org/Graphics/SVG/1.1/DTD/svg11.dtd">
<svg xmlns:xlink="http://www.w3.org/1999/xlink" width="1092.888pt" height="437.19pt" viewBox="0 0 1092.888 437.19" xmlns="http://www.w3.org/2000/svg" version="1.1">
 <metadata>
  <rdf:RDF xmlns:dc="http://purl.org/dc/elements/1.1/" xmlns:cc="http://creativecommons.org/ns#" xmlns:rdf="http://www.w3.org/1999/02/22-rdf-syntax-ns#">
   <cc:Work>
    <dc:type rdf:resource="http://purl.org/dc/dcmitype/StillImage"/>
    <dc:date>2026-07-11T16:31:16.957625</dc:date>
    <dc:format>image/svg+xml</dc:format>
    <dc:creator>
     <cc:Agent>
      <dc:title>table_rendering_utils.py</dc:title>
     </cc:Agent>
    </dc:creator>
   </cc:Work>
  </rdf:RDF>
 </metadata>
 <defs>
  <style type="text/css">*{stroke-linejoin: round; stroke-linecap: butt}</style>
 </defs>
 <g id="figure_1">
  <g id="patch_1">
   <path d="M 0 437.19 
L 1092.888 437.19 
L 1092.888 0 
L 0 0 
z
" style="fill: #ffffff"/>
  </g>
  <g id="axes_1">
   <g id="table_1">
    <g id="patch_2">
     <path d="M 21.6 81.2685 
L 179.712 81.2685 
L 179.712 50.4 
L 21.6 50.4 
z
" style="fill: #087e8b; stroke: #cbd5dd; stroke-width: 0.55; stroke-linejoin: miter"/>
    </g>
    <g id="text_1">
     <text style="font-weight: 700; font-size: 7.5px; font-family: 'Source Han Sans JP'; text-anchor: start; fill: #ffffff" x="33.4584" y="67.960031" transform="rotate(-0 33.4584 67.960031)">Constraint or requirement</text>
    </g>
    <g id="patch_3">
     <path d="M 179.712 81.2685 
L 296.1 81.2685 
L 296.1 50.4 
L 179.712 50.4 
z
" style="fill: #17324d; stroke: #cbd5dd; stroke-width: 0.55; stroke-linejoin: miter"/>
    </g>
    <g id="text_2">
     <text style="font-weight: 700; font-size: 7.5px; font-family: 'Source Han Sans JP'; text-anchor: start; fill: #ffffff" x="188.4411" y="67.881515" transform="rotate(-0 188.4411 67.881515)">Route weighted unmet rate</text>
    </g>
    <g id="patch_4">
     <path d="M 296.1 81.2685 
L 386.136 81.2685 
L 386.136 50.4 
L 296.1 50.4 
z
" style="fill: #17324d; stroke: #cbd5dd; stroke-width: 0.55; stroke-linejoin: miter"/>
    </g>
    <g id="text_3">
     <text style="font-weight: 700; font-size: 7.5px; font-family: 'Source Han Sans JP'; text-anchor: start; fill: #ffffff" x="302.8527" y="67.941281" transform="rotate(-0 302.8527 67.941281)">Spatial variability</text>
    </g>
    <g id="patch_5">
     <path d="M 386.136 81.2685 
L 484.956 81.2685 
L 484.956 50.4 
L 386.136 50.4 
z
" style="fill: #17324d; stroke: #cbd5dd; stroke-width: 0.55; stroke-linejoin: miter"/>
    </g>
    <g id="text_4">
     <text style="font-weight: 700; font-size: 7.5px; font-family: 'Source Han Sans JP'; text-anchor: start; fill: #ffffff" x="393.5475" y="67.922531" transform="rotate(-0 393.5475 67.922531)">Parameter sensitivity</text>
    </g>
    <g id="patch_6">
     <path d="M 484.956 81.2685 
L 643.068 81.2685 
L 643.068 50.4 
L 484.956 50.4 
z
" style="fill: #17324d; stroke: #cbd5dd; stroke-width: 0.55; stroke-linejoin: miter"/>
    </g>
    <g id="text_5">
     <text style="font-weight: 700; font-size: 7.5px; font-family: 'Source Han Sans JP'; text-anchor: start; fill: #ffffff" x="496.8144" y="67.941281" transform="rotate(-0 496.8144 67.941281)">Evidence quality</text>
    </g>
    <g id="patch_7">
     <path d="M 643.068 81.2685 
L 772.632 81.2685 
L 772.632 50.4 
L 643.068 50.4 
z
" style="fill: #17324d; stroke: #cbd5dd; stroke-width: 0.55; stroke-linejoin: miter"/>
    </g>
    <g id="text_6">
     <text style="font-weight: 700; font-size: 7.5px; font-family: 'Source Han Sans JP'; text-anchor: start; fill: #ffffff" x="652.7853" y="67.803" transform="rotate(-0 652.7853 67.803)">Quantum vrp coverage</text>
    </g>
    <g id="patch_8">
     <path d="M 772.632 81.2685 
L 831.924 81.2685 
L 831.924 50.4 
L 772.632 50.4 
z
" style="fill: #17324d; stroke: #cbd5dd; stroke-width: 0.55; stroke-linejoin: miter"/>
    </g>
    <g id="text_7">
     <text style="font-weight: 700; font-size: 7.5px; font-family: 'Source Han Sans JP'; text-anchor: start; fill: #ffffff" x="777.0789" y="67.881515" transform="rotate(-0 777.0789 67.881515)">Evidence gap</text>
    </g>
    <g id="patch_9">
     <path d="M 831.924 81.2685 
L 913.176 81.2685 
L 913.176 50.4 
L 831.924 50.4 
z
" style="fill: #17324d; stroke: #cbd5dd; stroke-width: 0.55; stroke-linejoin: miter"/>
    </g>
    <g id="text_8">
     <text style="font-weight: 700; font-size: 7.5px; font-family: 'Source Han Sans JP'; text-anchor: start; fill: #ffffff" x="838.0179" y="67.941281" transform="rotate(-0 838.0179 67.941281)">Research priority</text>
    </g>
    <g id="patch_10">
     <path d="M 913.176 81.2685 
L 1071.288 81.2685 
L 1071.288 50.4 
L 913.176 50.4 
z
" style="fill: #17324d; stroke: #cbd5dd; stroke-width: 0.55; stroke-linejoin: miter"/>
    </g>
    <g id="text_9">
     <text style="font-weight: 700; font-size: 7.5px; font-family: 'Source Han Sans JP'; text-anchor: start; fill: #ffffff" x="925.0344" y="67.960031" transform="rotate(-0 925.0344 67.960031)">Interpretation</text>
    </g>
    <g id="patch_11">
     <path d="M 21.6 131.6748 
L 179.712 131.6748 
L 179.712 81.2685 
L 21.6 81.2685 
z
" style="fill: #e5f3f5; stroke: #cbd5dd; stroke-width: 0.55; stroke-linejoin: miter"/>
    </g>
    <g id="text_10">
     <text style="font-weight: 600; font-size: 7.5px; font-family: 'Source Han Sans JP'; text-anchor: start; fill: #14212b" x="33.4584" y="108.578681" transform="rotate(-0 33.4584 108.578681)">Payload capacity</text>
    </g>
    <g id="patch_12">
     <path d="M 179.712 131.6748 
L 296.1 131.6748 
L 296.1 81.2685 
L 179.712 81.2685 
z
" style="fill: #ffffff; stroke: #cbd5dd; stroke-width: 0.55; stroke-linejoin: miter"/>
    </g>
    <g id="text_11">
     <text style="font-size: 7.5px; font-family: 'Source Han Sans JP'; text-anchor: start; fill: #14212b" x="188.4411" y="108.597431" transform="rotate(-0 188.4411 108.597431)">0.0%</text>
    </g>
    <g id="patch_13">
     <path d="M 296.1 131.6748 
L 386.136 131.6748 
L 386.136 81.2685 
L 296.1 81.2685 
z
" style="fill: #ffffff; stroke: #cbd5dd; stroke-width: 0.55; stroke-linejoin: miter"/>
    </g>
    <g id="text_12">
     <text style="font-size: 7.5px; font-family: 'Source Han Sans JP'; text-anchor: start; fill: #14212b" x="302.8527" y="108.597431" transform="rotate(-0 302.8527 108.597431)">Low</text>
    </g>
    <g id="patch_14">
     <path d="M 386.136 131.6748 
L 484.956 131.6748 
L 484.956 81.2685 
L 386.136 81.2685 
z
" style="fill: #ffffff; stroke: #cbd5dd; stroke-width: 0.55; stroke-linejoin: miter"/>
    </g>
    <g id="text_13">
     <text style="font-size: 7.5px; font-family: 'Source Han Sans JP'; text-anchor: start; fill: #14212b" x="393.5475" y="108.597431" transform="rotate(-0 393.5475 108.597431)">Low</text>
    </g>
    <g id="patch_15">
     <path d="M 484.956 131.6748 
L 643.068 131.6748 
L 643.068 81.2685 
L 484.956 81.2685 
z
" style="fill: #ffffff; stroke: #cbd5dd; stroke-width: 0.55; stroke-linejoin: miter"/>
    </g>
    <g id="text_14">
     <text style="font-size: 7.5px; font-family: 'Source Han Sans JP'; fill: #14212b" transform="translate(496.8144 104.137978)">Synthetic data with assumed</text>
     <text style="font-size: 7.5px; font-family: 'Source Han Sans JP'; fill: #14212b" transform="translate(496.8144 113.056884)">parameters</text>
    </g>
    <g id="patch_16">
     <path d="M 643.068 131.6748 
L 772.632 131.6748 
L 772.632 81.2685 
L 643.068 81.2685 
z
" style="fill: #ffffff; stroke: #cbd5dd; stroke-width: 0.55; stroke-linejoin: miter"/>
    </g>
    <g id="text_15">
     <text style="font-size: 7.5px; font-family: 'Source Han Sans JP'; text-anchor: start; fill: #14212b" x="652.7853" y="108.597431" transform="rotate(-0 652.7853 108.597431)">Reported in reviewed set</text>
    </g>
    <g id="patch_17">
     <path d="M 772.632 131.6748 
L 831.924 131.6748 
L 831.924 81.2685 
L 772.632 81.2685 
z
" style="fill: #ffffff; stroke: #cbd5dd; stroke-width: 0.55; stroke-linejoin: miter"/>
    </g>
    <g id="text_16">
     <text style="font-size: 7.5px; font-family: 'Source Han Sans JP'; text-anchor: start; fill: #14212b" x="777.0789" y="108.597431" transform="rotate(-0 777.0789 108.597431)">Medium</text>
    </g>
    <g id="patch_18">
     <path d="M 831.924 131.6748 
L 913.176 131.6748 
L 913.176 81.2685 
L 831.924 81.2685 
z
" style="fill: #ffffff; stroke: #cbd5dd; stroke-width: 0.55; stroke-linejoin: miter"/>
    </g>
    <g id="text_17">
     <text style="font-size: 7.5px; font-family: 'Source Han Sans JP'; fill: #14212b" transform="translate(838.0179 104.156728)">Evidence-</text>
     <text style="font-size: 7.5px; font-family: 'Source Han Sans JP'; fill: #14212b" transform="translate(838.0179 113.038134)">dependent</text>
    </g>
    <g id="patch_19">
     <path d="M 913.176 131.6748 
L 1071.288 131.6748 
L 1071.288 81.2685 
L 913.176 81.2685 
z
" style="fill: #ffffff; stroke: #cbd5dd; stroke-width: 0.55; stroke-linejoin: miter"/>
    </g>
    <g id="text_18">
     <text style="font-size: 7.5px; font-family: 'Source Han Sans JP'; fill: #14212b" transform="translate(925.0344 95.178056)">0% unmet under synthetic demand</text>
     <text style="font-size: 7.5px; font-family: 'Source Han Sans JP'; fill: #14212b" transform="translate(925.0344 104.096962)">assumptions; constraint was non-</text>
     <text style="font-size: 7.5px; font-family: 'Source Han Sans JP'; fill: #14212b" transform="translate(925.0344 112.978368)">binding only under current</text>
     <text style="font-size: 7.5px; font-family: 'Source Han Sans JP'; fill: #14212b" transform="translate(925.0344 122.016806)">assumptions.</text>
    </g>
    <g id="patch_20">
     <path d="M 21.6 172.0519 
L 179.712 172.0519 
L 179.712 131.6748 
L 21.6 131.6748 
z
" style="fill: #e5f3f5; stroke: #cbd5dd; stroke-width: 0.55; stroke-linejoin: miter"/>
    </g>
    <g id="text_19">
     <text style="font-weight: 600; font-size: 7.5px; font-family: 'Source Han Sans JP'; text-anchor: start; fill: #14212b" x="33.4584" y="153.910615" transform="rotate(-0 33.4584 153.910615)">Operating-time limit</text>
    </g>
    <g id="patch_21">
     <path d="M 179.712 172.0519 
L 296.1 172.0519 
L 296.1 131.6748 
L 179.712 131.6748 
z
" style="fill: #f4f7f9; stroke: #cbd5dd; stroke-width: 0.55; stroke-linejoin: miter"/>
    </g>
    <g id="text_20">
     <text style="font-size: 7.5px; font-family: 'Source Han Sans JP'; text-anchor: start; fill: #14212b" x="188.4411" y="153.989131" transform="rotate(-0 188.4411 153.989131)">33.5%</text>
    </g>
    <g id="patch_22">
     <path d="M 296.1 172.0519 
L 386.136 172.0519 
L 386.136 131.6748 
L 296.1 131.6748 
z
" style="fill: #f4f7f9; stroke: #cbd5dd; stroke-width: 0.55; stroke-linejoin: miter"/>
    </g>
    <g id="text_21">
     <text style="font-size: 7.5px; font-family: 'Source Han Sans JP'; text-anchor: start; fill: #14212b" x="302.8527" y="153.989131" transform="rotate(-0 302.8527 153.989131)">Low</text>
    </g>
    <g id="patch_23">
     <path d="M 386.136 172.0519 
L 484.956 172.0519 
L 484.956 131.6748 
L 386.136 131.6748 
z
" style="fill: #f4f7f9; stroke: #cbd5dd; stroke-width: 0.55; stroke-linejoin: miter"/>
    </g>
    <g id="text_22">
     <text style="font-size: 7.5px; font-family: 'Source Han Sans JP'; text-anchor: start; fill: #14212b" x="393.5475" y="153.910615" transform="rotate(-0 393.5475 153.910615)">High</text>
    </g>
    <g id="patch_24">
     <path d="M 484.956 172.0519 
L 643.068 172.0519 
L 643.068 131.6748 
L 484.956 131.6748 
z
" style="fill: #f4f7f9; stroke: #cbd5dd; stroke-width: 0.55; stroke-linejoin: miter"/>
    </g>
    <g id="text_23">
     <text style="font-size: 7.5px; font-family: 'Source Han Sans JP'; fill: #14212b" transform="translate(496.8144 149.529678)">Synthetic route proxy with assumed</text>
     <text style="font-size: 7.5px; font-family: 'Source Han Sans JP'; fill: #14212b" transform="translate(496.8144 158.448584)">parameters</text>
    </g>
    <g id="patch_25">
     <path d="M 643.068 172.0519 
L 772.632 172.0519 
L 772.632 131.6748 
L 643.068 131.6748 
z
" style="fill: #f4f7f9; stroke: #cbd5dd; stroke-width: 0.55; stroke-linejoin: miter"/>
    </g>
    <g id="text_24">
     <text style="font-size: 7.5px; font-family: 'Source Han Sans JP'; text-anchor: start; fill: #14212b" x="652.7853" y="153.989131" transform="rotate(-0 652.7853 153.989131)">Reported in reviewed set</text>
    </g>
    <g id="patch_26">
     <path d="M 772.632 172.0519 
L 831.924 172.0519 
L 831.924 131.6748 
L 772.632 131.6748 
z
" style="fill: #f4f7f9; stroke: #cbd5dd; stroke-width: 0.55; stroke-linejoin: miter"/>
    </g>
    <g id="text_25">
     <text style="font-size: 7.5px; font-family: 'Source Han Sans JP'; text-anchor: start; fill: #14212b" x="777.0789" y="153.989131" transform="rotate(-0 777.0789 153.989131)">Medium</text>
    </g>
    <g id="patch_27">
     <path d="M 831.924 172.0519 
L 913.176 172.0519 
L 913.176 131.6748 
L 831.924 131.6748 
z
" style="fill: #f4f7f9; stroke: #cbd5dd; stroke-width: 0.55; stroke-linejoin: miter"/>
    </g>
    <g id="text_26">
     <text style="font-size: 7.5px; font-family: 'Source Han Sans JP'; text-anchor: start; fill: #14212b" x="838.0179" y="153.989131" transform="rotate(-0 838.0179 153.989131)">Medium</text>
    </g>
    <g id="patch_28">
     <path d="M 913.176 172.0519 
L 1071.288 172.0519 
L 1071.288 131.6748 
L 913.176 131.6748 
z
" style="fill: #f4f7f9; stroke: #cbd5dd; stroke-width: 0.55; stroke-linejoin: miter"/>
    </g>
    <g id="text_27">
     <text style="font-size: 7.5px; font-family: 'Source Han Sans JP'; fill: #14212b" transform="translate(925.0344 145.100694)">Merits further study, but inference</text>
     <text style="font-size: 7.5px; font-family: 'Source Han Sans JP'; fill: #14212b" transform="translate(925.0344 154.0196)">remains limited by synthetic inputs</text>
     <text style="font-size: 7.5px; font-family: 'Source Han Sans JP'; fill: #14212b" transform="translate(925.0344 162.938506)">and route-proxy assumptions.</text>
    </g>
    <g id="patch_29">
     <path d="M 21.6 222.4582 
L 179.712 222.4582 
L 179.712 172.0519 
L 21.6 172.0519 
z
" style="fill: #e5f3f5; stroke: #cbd5dd; stroke-width: 0.55; stroke-linejoin: miter"/>
    </g>
    <g id="text_28">
     <text style="font-weight: 600; font-size: 7.5px; font-family: 'Source Han Sans JP'; text-anchor: start; fill: #14212b" x="33.4584" y="199.351534" transform="rotate(-0 33.4584 199.351534)">Range feasibility</text>
    </g>
    <g id="patch_30">
     <path d="M 179.712 222.4582 
L 296.1 222.4582 
L 296.1 172.0519 
L 179.712 172.0519 
z
" style="fill: #ffffff; stroke: #cbd5dd; stroke-width: 0.55; stroke-linejoin: miter"/>
    </g>
    <g id="text_29">
     <text style="font-size: 7.5px; font-family: 'Source Han Sans JP'; text-anchor: start; fill: #14212b" x="188.4411" y="199.380831" transform="rotate(-0 188.4411 199.380831)">64.4%</text>
    </g>
    <g id="patch_31">
     <path d="M 296.1 222.4582 
L 386.136 222.4582 
L 386.136 172.0519 
L 296.1 172.0519 
z
" style="fill: #ffffff; stroke: #cbd5dd; stroke-width: 0.55; stroke-linejoin: miter"/>
    </g>
    <g id="text_30">
     <text style="font-size: 7.5px; font-family: 'Source Han Sans JP'; text-anchor: start; fill: #14212b" x="302.8527" y="199.380831" transform="rotate(-0 302.8527 199.380831)">Medium</text>
    </g>
    <g id="patch_32">
     <path d="M 386.136 222.4582 
L 484.956 222.4582 
L 484.956 172.0519 
L 386.136 172.0519 
z
" style="fill: #ffffff; stroke: #cbd5dd; stroke-width: 0.55; stroke-linejoin: miter"/>
    </g>
    <g id="text_31">
     <text style="font-size: 7.5px; font-family: 'Source Han Sans JP'; text-anchor: start; fill: #14212b" x="393.5475" y="199.302315" transform="rotate(-0 393.5475 199.302315)">High</text>
    </g>
    <g id="patch_33">
     <path d="M 484.956 222.4582 
L 643.068 222.4582 
L 643.068 172.0519 
L 484.956 172.0519 
z
" style="fill: #ffffff; stroke: #cbd5dd; stroke-width: 0.55; stroke-linejoin: miter"/>
    </g>
    <g id="text_32">
     <text style="font-size: 7.5px; font-family: 'Source Han Sans JP'; fill: #14212b" transform="translate(496.8144 194.892081)">Manufacturer range with assumed</text>
     <text style="font-size: 7.5px; font-family: 'Source Han Sans JP'; fill: #14212b" transform="translate(496.8144 203.930519)">usable ratio and route proxy</text>
    </g>
    <g id="patch_34">
     <path d="M 643.068 222.4582 
L 772.632 222.4582 
L 772.632 172.0519 
L 643.068 172.0519 
z
" style="fill: #ffffff; stroke: #cbd5dd; stroke-width: 0.55; stroke-linejoin: miter"/>
    </g>
    <g id="text_33">
     <text style="font-size: 7.5px; font-family: 'Source Han Sans JP'; text-anchor: start; fill: #14212b" x="652.7853" y="199.380831" transform="rotate(-0 652.7853 199.380831)">Not reported in reviewed set</text>
    </g>
    <g id="patch_35">
     <path d="M 772.632 222.4582 
L 831.924 222.4582 
L 831.924 172.0519 
L 772.632 172.0519 
z
" style="fill: #ffffff; stroke: #cbd5dd; stroke-width: 0.55; stroke-linejoin: miter"/>
    </g>
    <g id="text_34">
     <text style="font-size: 7.5px; font-family: 'Source Han Sans JP'; text-anchor: start; fill: #14212b" x="777.0789" y="199.302315" transform="rotate(-0 777.0789 199.302315)">High</text>
    </g>
    <g id="patch_36">
     <path d="M 831.924 222.4582 
L 913.176 222.4582 
L 913.176 172.0519 
L 831.924 172.0519 
z
" style="fill: #ffffff; stroke: #cbd5dd; stroke-width: 0.55; stroke-linejoin: miter"/>
    </g>
    <g id="text_35">
     <text style="font-size: 7.5px; font-family: 'Source Han Sans JP'; text-anchor: start; fill: #14212b" x="838.0179" y="199.302315" transform="rotate(-0 838.0179 199.302315)">High</text>
    </g>
    <g id="patch_37">
     <path d="M 913.176 222.4582 
L 1071.288 222.4582 
L 1071.288 172.0519 
L 913.176 172.0519 
z
" style="fill: #ffffff; stroke: #cbd5dd; stroke-width: 0.55; stroke-linejoin: miter"/>
    </g>
    <g id="text_36">
     <text style="font-size: 7.5px; font-family: 'Source Han Sans JP'; fill: #14212b" transform="translate(925.0344 185.942706)">Binding or highly assumption-</text>
     <text style="font-size: 7.5px; font-family: 'Source Han Sans JP'; fill: #14212b" transform="translate(925.0344 194.981144)">sensitive in the proxy analysis and</text>
     <text style="font-size: 7.5px; font-family: 'Source Han Sans JP'; fill: #14212b" transform="translate(925.0344 203.90005)">incompletely covered in reviewed</text>
     <text style="font-size: 7.5px; font-family: 'Source Han Sans JP'; fill: #14212b" transform="translate(925.0344 212.818956)">quantum evidence.</text>
    </g>
    <g id="patch_38">
     <path d="M 21.6 262.8353 
L 179.712 262.8353 
L 179.712 222.4582 
L 21.6 222.4582 
z
" style="fill: #e5f3f5; stroke: #cbd5dd; stroke-width: 0.55; stroke-linejoin: miter"/>
    </g>
    <g id="text_37">
     <text style="font-weight: 600; font-size: 7.5px; font-family: 'Source Han Sans JP'; text-anchor: start; fill: #14212b" x="33.4584" y="244.803" transform="rotate(-0 33.4584 244.803)">SOC feasibility</text>
    </g>
    <g id="patch_39">
     <path d="M 179.712 262.8353 
L 296.1 262.8353 
L 296.1 222.4582 
L 179.712 222.4582 
z
" style="fill: #f4f7f9; stroke: #cbd5dd; stroke-width: 0.55; stroke-linejoin: miter"/>
    </g>
    <g id="text_38">
     <text style="font-size: 7.5px; font-family: 'Source Han Sans JP'; text-anchor: start; fill: #14212b" x="188.4411" y="244.772531" transform="rotate(-0 188.4411 244.772531)">Not evaluated</text>
    </g>
    <g id="patch_40">
     <path d="M 296.1 262.8353 
L 386.136 262.8353 
L 386.136 222.4582 
L 296.1 222.4582 
z
" style="fill: #f4f7f9; stroke: #cbd5dd; stroke-width: 0.55; stroke-linejoin: miter"/>
    </g>
    <g id="text_39">
     <text style="font-size: 7.5px; font-family: 'Source Han Sans JP'; text-anchor: start; fill: #14212b" x="302.8527" y="244.772531" transform="rotate(-0 302.8527 244.772531)">Not assessable</text>
    </g>
    <g id="patch_41">
     <path d="M 386.136 262.8353 
L 484.956 262.8353 
L 484.956 222.4582 
L 386.136 222.4582 
z
" style="fill: #f4f7f9; stroke: #cbd5dd; stroke-width: 0.55; stroke-linejoin: miter"/>
    </g>
    <g id="text_40">
     <text style="font-size: 7.5px; font-family: 'Source Han Sans JP'; text-anchor: start; fill: #14212b" x="393.5475" y="244.772531" transform="rotate(-0 393.5475 244.772531)">Not assessable</text>
    </g>
    <g id="patch_42">
     <path d="M 484.956 262.8353 
L 643.068 262.8353 
L 643.068 222.4582 
L 484.956 222.4582 
z
" style="fill: #f4f7f9; stroke: #cbd5dd; stroke-width: 0.55; stroke-linejoin: miter"/>
    </g>
    <g id="text_41">
     <text style="font-size: 7.5px; font-family: 'Source Han Sans JP'; text-anchor: start; fill: #14212b" x="496.8144" y="244.772531" transform="rotate(-0 496.8144 244.772531)">Not evaluated</text>
    </g>
    <g id="patch_43">
     <path d="M 643.068 262.8353 
L 772.632 262.8353 
L 772.632 222.4582 
L 643.068 222.4582 
z
" style="fill: #f4f7f9; stroke: #cbd5dd; stroke-width: 0.55; stroke-linejoin: miter"/>
    </g>
    <g id="text_42">
     <text style="font-size: 7.5px; font-family: 'Source Han Sans JP'; text-anchor: start; fill: #14212b" x="652.7853" y="244.772531" transform="rotate(-0 652.7853 244.772531)">Not reported in reviewed set</text>
    </g>
    <g id="patch_44">
     <path d="M 772.632 262.8353 
L 831.924 262.8353 
L 831.924 222.4582 
L 772.632 222.4582 
z
" style="fill: #f4f7f9; stroke: #cbd5dd; stroke-width: 0.55; stroke-linejoin: miter"/>
    </g>
    <g id="text_43">
     <text style="font-size: 7.5px; font-family: 'Source Han Sans JP'; text-anchor: start; fill: #14212b" x="777.0789" y="244.694015" transform="rotate(-0 777.0789 244.694015)">High</text>
    </g>
    <g id="patch_45">
     <path d="M 831.924 262.8353 
L 913.176 262.8353 
L 913.176 222.4582 
L 831.924 222.4582 
z
" style="fill: #f4f7f9; stroke: #cbd5dd; stroke-width: 0.55; stroke-linejoin: miter"/>
    </g>
    <g id="text_44">
     <text style="font-size: 7.5px; font-family: 'Source Han Sans JP'; fill: #14212b" transform="translate(838.0179 240.331828)">Evidence-</text>
     <text style="font-size: 7.5px; font-family: 'Source Han Sans JP'; fill: #14212b" transform="translate(838.0179 249.213234)">dependent</text>
    </g>
    <g id="patch_46">
     <path d="M 913.176 262.8353 
L 1071.288 262.8353 
L 1071.288 222.4582 
L 913.176 222.4582 
z
" style="fill: #f4f7f9; stroke: #cbd5dd; stroke-width: 0.55; stroke-linejoin: miter"/>
    </g>
    <g id="text_45">
     <text style="font-size: 7.5px; font-family: 'Source Han Sans JP'; fill: #14212b" transform="translate(925.0344 235.891125)">Constraint is not evaluated;</text>
     <text style="font-size: 7.5px; font-family: 'Source Han Sans JP'; fill: #14212b" transform="translate(925.0344 244.772531)">implementation and evidence are</text>
     <text style="font-size: 7.5px; font-family: 'Source Han Sans JP'; fill: #14212b" transform="translate(925.0344 253.653937)">prerequisites to prioritization.</text>
    </g>
    <g id="patch_47">
     <path d="M 21.6 303.2124 
L 179.712 303.2124 
L 179.712 262.8353 
L 21.6 262.8353 
z
" style="fill: #e5f3f5; stroke: #cbd5dd; stroke-width: 0.55; stroke-linejoin: miter"/>
    </g>
    <g id="text_46">
     <text style="font-weight: 600; font-size: 7.5px; font-family: 'Source Han Sans JP'; text-anchor: start; fill: #14212b" x="33.4584" y="285.071115" transform="rotate(-0 33.4584 285.071115)">Charging-station access</text>
    </g>
    <g id="patch_48">
     <path d="M 179.712 303.2124 
L 296.1 303.2124 
L 296.1 262.8353 
L 179.712 262.8353 
z
" style="fill: #ffffff; stroke: #cbd5dd; stroke-width: 0.55; stroke-linejoin: miter"/>
    </g>
    <g id="text_47">
     <text style="font-size: 7.5px; font-family: 'Source Han Sans JP'; text-anchor: start; fill: #14212b" x="188.4411" y="285.149631" transform="rotate(-0 188.4411 285.149631)">10.7%</text>
    </g>
    <g id="patch_49">
     <path d="M 296.1 303.2124 
L 386.136 303.2124 
L 386.136 262.8353 
L 296.1 262.8353 
z
" style="fill: #ffffff; stroke: #cbd5dd; stroke-width: 0.55; stroke-linejoin: miter"/>
    </g>
    <g id="text_48">
     <text style="font-size: 7.5px; font-family: 'Source Han Sans JP'; text-anchor: start; fill: #14212b" x="302.8527" y="285.149631" transform="rotate(-0 302.8527 285.149631)">Low</text>
    </g>
    <g id="patch_50">
     <path d="M 386.136 303.2124 
L 484.956 303.2124 
L 484.956 262.8353 
L 386.136 262.8353 
z
" style="fill: #ffffff; stroke: #cbd5dd; stroke-width: 0.55; stroke-linejoin: miter"/>
    </g>
    <g id="text_49">
     <text style="font-size: 7.5px; font-family: 'Source Han Sans JP'; text-anchor: start; fill: #14212b" x="393.5475" y="285.149631" transform="rotate(-0 393.5475 285.149631)">Low</text>
    </g>
    <g id="patch_51">
     <path d="M 484.956 303.2124 
L 643.068 303.2124 
L 643.068 262.8353 
L 484.956 262.8353 
z
" style="fill: #ffffff; stroke: #cbd5dd; stroke-width: 0.55; stroke-linejoin: miter"/>
    </g>
    <g id="text_50">
     <text style="font-size: 7.5px; font-family: 'Source Han Sans JP'; fill: #14212b" transform="translate(496.8144 280.551897)">Public candidate geography with</text>
     <text style="font-size: 7.5px; font-family: 'Source Han Sans JP'; fill: #14212b" transform="translate(496.8144 289.590334)">substantial attribute missingness</text>
    </g>
    <g id="patch_52">
     <path d="M 643.068 303.2124 
L 772.632 303.2124 
L 772.632 262.8353 
L 643.068 262.8353 
z
" style="fill: #ffffff; stroke: #cbd5dd; stroke-width: 0.55; stroke-linejoin: miter"/>
    </g>
    <g id="text_51">
     <text style="font-size: 7.5px; font-family: 'Source Han Sans JP'; text-anchor: start; fill: #14212b" x="652.7853" y="285.149631" transform="rotate(-0 652.7853 285.149631)">Not reported in reviewed set</text>
    </g>
    <g id="patch_53">
     <path d="M 772.632 303.2124 
L 831.924 303.2124 
L 831.924 262.8353 
L 772.632 262.8353 
z
" style="fill: #ffffff; stroke: #cbd5dd; stroke-width: 0.55; stroke-linejoin: miter"/>
    </g>
    <g id="text_52">
     <text style="font-size: 7.5px; font-family: 'Source Han Sans JP'; text-anchor: start; fill: #14212b" x="777.0789" y="285.071115" transform="rotate(-0 777.0789 285.071115)">High</text>
    </g>
    <g id="patch_54">
     <path d="M 831.924 303.2124 
L 913.176 303.2124 
L 913.176 262.8353 
L 831.924 262.8353 
z
" style="fill: #ffffff; stroke: #cbd5dd; stroke-width: 0.55; stroke-linejoin: miter"/>
    </g>
    <g id="text_53">
     <text style="font-size: 7.5px; font-family: 'Source Han Sans JP'; text-anchor: start; fill: #14212b" x="838.0179" y="285.149631" transform="rotate(-0 838.0179 285.149631)">Medium</text>
    </g>
    <g id="patch_55">
     <path d="M 913.176 303.2124 
L 1071.288 303.2124 
L 1071.288 262.8353 
L 913.176 262.8353 
z
" style="fill: #ffffff; stroke: #cbd5dd; stroke-width: 0.55; stroke-linejoin: miter"/>
    </g>
    <g id="text_54">
     <text style="font-size: 7.5px; font-family: 'Source Han Sans JP'; fill: #14212b" transform="translate(925.0344 276.261194)">Merits further study, but inference</text>
     <text style="font-size: 7.5px; font-family: 'Source Han Sans JP'; fill: #14212b" transform="translate(925.0344 285.1801)">remains limited by synthetic inputs</text>
     <text style="font-size: 7.5px; font-family: 'Source Han Sans JP'; fill: #14212b" transform="translate(925.0344 294.099006)">and route-proxy assumptions.</text>
    </g>
    <g id="patch_56">
     <path d="M 21.6 353.6187 
L 179.712 353.6187 
L 179.712 303.2124 
L 21.6 303.2124 
z
" style="fill: #e5f3f5; stroke: #cbd5dd; stroke-width: 0.55; stroke-linejoin: miter"/>
    </g>
    <g id="text_55">
     <text style="font-weight: 600; font-size: 7.5px; font-family: 'Source Han Sans JP'; text-anchor: start; fill: #14212b" x="33.4584" y="330.512034" transform="rotate(-0 33.4584 330.512034)">Charging-assisted range feasibility</text>
    </g>
    <g id="patch_57">
     <path d="M 179.712 353.6187 
L 296.1 353.6187 
L 296.1 303.2124 
L 179.712 303.2124 
z
" style="fill: #f4f7f9; stroke: #cbd5dd; stroke-width: 0.55; stroke-linejoin: miter"/>
    </g>
    <g id="text_56">
     <text style="font-size: 7.5px; font-family: 'Source Han Sans JP'; text-anchor: start; fill: #14212b" x="188.4411" y="330.541331" transform="rotate(-0 188.4411 330.541331)">33.3%</text>
    </g>
    <g id="patch_58">
     <path d="M 296.1 353.6187 
L 386.136 353.6187 
L 386.136 303.2124 
L 296.1 303.2124 
z
" style="fill: #f4f7f9; stroke: #cbd5dd; stroke-width: 0.55; stroke-linejoin: miter"/>
    </g>
    <g id="text_57">
     <text style="font-size: 7.5px; font-family: 'Source Han Sans JP'; text-anchor: start; fill: #14212b" x="302.8527" y="330.541331" transform="rotate(-0 302.8527 330.541331)">Medium</text>
    </g>
    <g id="patch_59">
     <path d="M 386.136 353.6187 
L 484.956 353.6187 
L 484.956 303.2124 
L 386.136 303.2124 
z
" style="fill: #f4f7f9; stroke: #cbd5dd; stroke-width: 0.55; stroke-linejoin: miter"/>
    </g>
    <g id="text_58">
     <text style="font-size: 7.5px; font-family: 'Source Han Sans JP'; text-anchor: start; fill: #14212b" x="393.5475" y="330.462816" transform="rotate(-0 393.5475 330.462816)">High</text>
    </g>
    <g id="patch_60">
     <path d="M 484.956 353.6187 
L 643.068 353.6187 
L 643.068 303.2124 
L 484.956 303.2124 
z
" style="fill: #f4f7f9; stroke: #cbd5dd; stroke-width: 0.55; stroke-linejoin: miter"/>
    </g>
    <g id="text_59">
     <text style="font-size: 7.5px; font-family: 'Source Han Sans JP'; fill: #14212b" transform="translate(496.8144 326.052581)">Simplified proxy with public</text>
     <text style="font-size: 7.5px; font-family: 'Source Han Sans JP'; fill: #14212b" transform="translate(496.8144 334.971487)">candidate geography</text>
    </g>
    <g id="patch_61">
     <path d="M 643.068 353.6187 
L 772.632 353.6187 
L 772.632 303.2124 
L 643.068 303.2124 
z
" style="fill: #f4f7f9; stroke: #cbd5dd; stroke-width: 0.55; stroke-linejoin: miter"/>
    </g>
    <g id="text_60">
     <text style="font-size: 7.5px; font-family: 'Source Han Sans JP'; text-anchor: start; fill: #14212b" x="652.7853" y="330.541331" transform="rotate(-0 652.7853 330.541331)">Not reported in reviewed set</text>
    </g>
    <g id="patch_62">
     <path d="M 772.632 353.6187 
L 831.924 353.6187 
L 831.924 303.2124 
L 772.632 303.2124 
z
" style="fill: #f4f7f9; stroke: #cbd5dd; stroke-width: 0.55; stroke-linejoin: miter"/>
    </g>
    <g id="text_61">
     <text style="font-size: 7.5px; font-family: 'Source Han Sans JP'; text-anchor: start; fill: #14212b" x="777.0789" y="330.462816" transform="rotate(-0 777.0789 330.462816)">High</text>
    </g>
    <g id="patch_63">
     <path d="M 831.924 353.6187 
L 913.176 353.6187 
L 913.176 303.2124 
L 831.924 303.2124 
z
" style="fill: #f4f7f9; stroke: #cbd5dd; stroke-width: 0.55; stroke-linejoin: miter"/>
    </g>
    <g id="text_62">
     <text style="font-size: 7.5px; font-family: 'Source Han Sans JP'; text-anchor: start; fill: #14212b" x="838.0179" y="330.462816" transform="rotate(-0 838.0179 330.462816)">High</text>
    </g>
    <g id="patch_64">
     <path d="M 913.176 353.6187 
L 1071.288 353.6187 
L 1071.288 303.2124 
L 913.176 303.2124 
z
" style="fill: #f4f7f9; stroke: #cbd5dd; stroke-width: 0.55; stroke-linejoin: miter"/>
    </g>
    <g id="text_63">
     <text style="font-size: 7.5px; font-family: 'Source Han Sans JP'; fill: #14212b" transform="translate(925.0344 317.103206)">Binding or highly assumption-</text>
     <text style="font-size: 7.5px; font-family: 'Source Han Sans JP'; fill: #14212b" transform="translate(925.0344 326.141644)">sensitive in the proxy analysis and</text>
     <text style="font-size: 7.5px; font-family: 'Source Han Sans JP'; fill: #14212b" transform="translate(925.0344 335.06055)">incompletely covered in reviewed</text>
     <text style="font-size: 7.5px; font-family: 'Source Han Sans JP'; fill: #14212b" transform="translate(925.0344 343.979456)">quantum evidence.</text>
    </g>
    <g id="patch_65">
     <path d="M 21.6 404.025 
L 179.712 404.025 
L 179.712 353.6187 
L 21.6 353.6187 
z
" style="fill: #e5f3f5; stroke: #cbd5dd; stroke-width: 0.55; stroke-linejoin: miter"/>
    </g>
    <g id="text_64">
     <text style="font-weight: 600; font-size: 7.5px; font-family: 'Source Han Sans JP'; text-anchor: start; fill: #14212b" x="33.4584" y="380.918334" transform="rotate(-0 33.4584 380.918334)">Charging-duration feasibility</text>
    </g>
    <g id="patch_66">
     <path d="M 179.712 404.025 
L 296.1 404.025 
L 296.1 353.6187 
L 179.712 353.6187 
z
" style="fill: #ffffff; stroke: #cbd5dd; stroke-width: 0.55; stroke-linejoin: miter"/>
    </g>
    <g id="text_65">
     <text style="font-size: 7.5px; font-family: 'Source Han Sans JP'; text-anchor: start; fill: #14212b" x="188.4411" y="380.947631" transform="rotate(-0 188.4411 380.947631)">15.3%</text>
    </g>
    <g id="patch_67">
     <path d="M 296.1 404.025 
L 386.136 404.025 
L 386.136 353.6187 
L 296.1 353.6187 
z
" style="fill: #ffffff; stroke: #cbd5dd; stroke-width: 0.55; stroke-linejoin: miter"/>
    </g>
    <g id="text_66">
     <text style="font-size: 7.5px; font-family: 'Source Han Sans JP'; text-anchor: start; fill: #14212b" x="302.8527" y="380.947631" transform="rotate(-0 302.8527 380.947631)">Low</text>
    </g>
    <g id="patch_68">
     <path d="M 386.136 404.025 
L 484.956 404.025 
L 484.956 353.6187 
L 386.136 353.6187 
z
" style="fill: #ffffff; stroke: #cbd5dd; stroke-width: 0.55; stroke-linejoin: miter"/>
    </g>
    <g id="text_67">
     <text style="font-size: 7.5px; font-family: 'Source Han Sans JP'; text-anchor: start; fill: #14212b" x="393.5475" y="380.869116" transform="rotate(-0 393.5475 380.869116)">High</text>
    </g>
    <g id="patch_69">
     <path d="M 484.956 404.025 
L 643.068 404.025 
L 643.068 353.6187 
L 484.956 353.6187 
z
" style="fill: #ffffff; stroke: #cbd5dd; stroke-width: 0.55; stroke-linejoin: miter"/>
    </g>
    <g id="text_68">
     <text style="font-size: 7.5px; font-family: 'Source Han Sans JP'; fill: #14212b" transform="translate(496.8144 376.458881)">Simplified duration proxy; actual</text>
     <text style="font-size: 7.5px; font-family: 'Source Han Sans JP'; fill: #14212b" transform="translate(496.8144 385.377787)">charging behavior not evaluated</text>
    </g>
    <g id="patch_70">
     <path d="M 643.068 404.025 
L 772.632 404.025 
L 772.632 353.6187 
L 643.068 353.6187 
z
" style="fill: #ffffff; stroke: #cbd5dd; stroke-width: 0.55; stroke-linejoin: miter"/>
    </g>
    <g id="text_69">
     <text style="font-size: 7.5px; font-family: 'Source Han Sans JP'; text-anchor: start; fill: #14212b" x="652.7853" y="380.947631" transform="rotate(-0 652.7853 380.947631)">Not reported in reviewed set</text>
    </g>
    <g id="patch_71">
     <path d="M 772.632 404.025 
L 831.924 404.025 
L 831.924 353.6187 
L 772.632 353.6187 
z
" style="fill: #ffffff; stroke: #cbd5dd; stroke-width: 0.55; stroke-linejoin: miter"/>
    </g>
    <g id="text_70">
     <text style="font-size: 7.5px; font-family: 'Source Han Sans JP'; text-anchor: start; fill: #14212b" x="777.0789" y="380.869116" transform="rotate(-0 777.0789 380.869116)">High</text>
    </g>
    <g id="patch_72">
     <path d="M 831.924 404.025 
L 913.176 404.025 
L 913.176 353.6187 
L 831.924 353.6187 
z
" style="fill: #ffffff; stroke: #cbd5dd; stroke-width: 0.55; stroke-linejoin: miter"/>
    </g>
    <g id="text_71">
     <text style="font-size: 7.5px; font-family: 'Source Han Sans JP'; text-anchor: start; fill: #14212b" x="838.0179" y="380.869116" transform="rotate(-0 838.0179 380.869116)">High</text>
    </g>
    <g id="patch_73">
     <path d="M 913.176 404.025 
L 1071.288 404.025 
L 1071.288 353.6187 
L 913.176 353.6187 
z
" style="fill: #ffffff; stroke: #cbd5dd; stroke-width: 0.55; stroke-linejoin: miter"/>
    </g>
    <g id="text_72">
     <text style="font-size: 7.5px; font-family: 'Source Han Sans JP'; fill: #14212b" transform="translate(925.0344 367.509506)">Binding or highly assumption-</text>
     <text style="font-size: 7.5px; font-family: 'Source Han Sans JP'; fill: #14212b" transform="translate(925.0344 376.547944)">sensitive in the proxy analysis and</text>
     <text style="font-size: 7.5px; font-family: 'Source Han Sans JP'; fill: #14212b" transform="translate(925.0344 385.46685)">incompletely covered in reviewed</text>
     <text style="font-size: 7.5px; font-family: 'Source Han Sans JP'; fill: #14212b" transform="translate(925.0344 394.385756)">quantum evidence.</text>
    </g>
   </g>
  </g>
  <g id="text_73">
   <text style="font-weight: 700; font-size: 10.125px; font-family: 'Source Han Sans JP'; text-anchor: start; fill: #102a43" x="21.6" y="19.711758" transform="rotate(-0 21.6 19.711758)">Which constraints should be prioritized in future quantum-oriented EVRP research?</text>
  </g>
  <g id="text_74">
   <text style="font-size: 5.85px; font-family: 'Source Han Sans JP'; text-anchor: start; fill: #52616b" x="21.6" y="428.5275" transform="rotate(-0 21.6 428.5275)">本表はsynthetic customer configurationおよびroute proxyに基づく。東京都の実配送における観測失敗率を示すものではない。各数値は車両性能、顧客需要、配送可能時間、充電条件、およびルート生成方法の仮定に依存する。</text>
  </g>
 </g>
</svg>
