<?xml version="1.0" encoding="utf-8" standalone="no"?>
<!DOCTYPE svg PUBLIC "-//W3C//DTD SVG 1.1//EN"
  "http://www.w3.org/Graphics/SVG/1.1/DTD/svg11.dtd">
<svg xmlns:xlink="http://www.w3.org/1999/xlink" width="684pt" height="710.671719pt" viewBox="0 0 684 710.671719" xmlns="http://www.w3.org/2000/svg" version="1.1">
 <metadata>
  <rdf:RDF xmlns:dc="http://purl.org/dc/elements/1.1/" xmlns:cc="http://creativecommons.org/ns#" xmlns:rdf="http://www.w3.org/1999/02/22-rdf-syntax-ns#">
   <cc:Work>
    <dc:type rdf:resource="http://purl.org/dc/dcmitype/StillImage"/>
    <dc:date>2026-09-28T14:01:07.582025</dc:date>
    <dc:format>image/svg+xml</dc:format>
    <dc:creator>
     <cc:Agent>
      <dc:title>Matplotlib v3.10.6, https://matplotlib.org/</dc:title>
     </cc:Agent>
    </dc:creator>
   </cc:Work>
  </rdf:RDF>
 </metadata>
 <defs>
  <style type="text/css">*{stroke-linejoin: round; stroke-linecap: butt}</style>
 </defs>
 <g id="figure_1">
  <g id="patch_1">
   <path d="M 0 710.671719
L 684 710.671719
L 684 0
L 0 0
z
" style="fill: #ffffff"/>
  </g>
  <g id="axes_1">
   <g id="patch_2">
    <path d="M 107.64 105.717639
L 576.36 105.717639
Q 582.3864 105.717639 582.3864 99.730119
L 582.3864 56.486919
Q 582.3864 50.499399 576.36 50.499399
L 107.64 50.499399
Q 101.6136 50.499399 101.6136 56.486919
L 101.6136 99.730119
Q 101.6136 105.717639 107.64 105.717639
z
" clip-path="url(#p50c4172078)" style="fill: #e8f1f8; stroke: #456174; stroke-width: 1.2; stroke-linejoin: miter"/>
   </g>
   <g id="patch_3">
    <path d="M 107.64 172.245639
L 576.36 172.245639
Q 582.3864 172.245639 582.3864 166.258119
L 582.3864 123.014919
Q 582.3864 117.027399 576.36 117.027399
L 107.64 117.027399
Q 101.6136 117.027399 101.6136 123.014919
L 101.6136 166.258119
Q 101.6136 172.245639 107.64 172.245639
z
" clip-path="url(#p50c4172078)" style="fill: #e8f1f8; stroke: #456174; stroke-width: 1.2; stroke-linejoin: miter"/>
   </g>
   <g id="patch_4">
    <path d="M 107.64 238.773639
L 576.36 238.773639
Q 582.3864 238.773639 582.3864 232.786119
L 582.3864 189.542919
Q 582.3864 183.555399 576.36 183.555399
L 107.64 183.555399
Q 101.6136 183.555399 101.6136 189.542919
L 101.6136 232.786119
Q 101.6136 238.773639 107.64 238.773639
z
" clip-path="url(#p50c4172078)" style="fill: #e8f1f8; stroke: #456174; stroke-width: 1.2; stroke-linejoin: miter"/>
   </g>
   <g id="patch_5">
    <path d="M 107.64 305.301639
L 576.36 305.301639
Q 582.3864 305.301639 582.3864 299.314119
L 582.3864 256.070919
Q 582.3864 250.083399 576.36 250.083399
L 107.64 250.083399
Q 101.6136 250.083399 101.6136 256.070919
L 101.6136 299.314119
Q 101.6136 305.301639 107.64 305.301639
z
" clip-path="url(#p50c4172078)" style="fill: #e8f1f8; stroke: #456174; stroke-width: 1.2; stroke-linejoin: miter"/>
   </g>
   <g id="patch_6">
    <path d="M 40.68 385.135239
L 281.736 385.135239
Q 287.7624 385.135239 287.7624 379.147719
L 287.7624 335.904519
Q 287.7624 329.916999 281.736 329.916999
L 40.68 329.916999
Q 34.6536 329.916999 34.6536 335.904519
L 34.6536 379.147719
Q 34.6536 385.135239 40.68 385.135239
z
" clip-path="url(#p50c4172078)" style="fill: #e8f1f8; stroke: #456174; stroke-width: 1.2; stroke-linejoin: miter"/>
   </g>
   <g id="patch_7">
    <path d="M 382.176 385.135239
L 650.016 385.135239
Q 656.0424 385.135239 656.0424 379.147719
L 656.0424 335.904519
Q 656.0424 329.916999 650.016 329.916999
L 382.176 329.916999
Q 376.1496 329.916999 376.1496 335.904519
L 376.1496 379.147719
Q 376.1496 385.135239 382.176 385.135239
z
" clip-path="url(#p50c4172078)" style="fill: #e8f1f8; stroke: #456174; stroke-width: 1.2; stroke-linejoin: miter"/>
   </g>
   <g id="patch_8">
    <path d="M 382.176 458.316039
L 650.016 458.316039
Q 656.0424 458.316039 656.0424 452.328519
L 656.0424 409.085319
Q 656.0424 403.097799 650.016 403.097799
L 382.176 403.097799
Q 376.1496 403.097799 376.1496 409.085319
L 376.1496 452.328519
Q 376.1496 458.316039 382.176 458.316039
z
" clip-path="url(#p50c4172078)" style="fill: #e8f1f8; stroke: #456174; stroke-width: 1.2; stroke-linejoin: miter"/>
   </g>
   <g id="patch_9">
    <path d="M 382.176 531.496839
L 650.016 531.496839
Q 656.0424 531.496839 656.0424 525.509319
L 656.0424 482.266119
Q 656.0424 476.278599 650.016 476.278599
L 382.176 476.278599
Q 376.1496 476.278599 376.1496 482.266119
L 376.1496 525.509319
Q 376.1496 531.496839 382.176 531.496839
z
" clip-path="url(#p50c4172078)" style="fill: #e8f1f8; stroke: #456174; stroke-width: 1.2; stroke-linejoin: miter"/>
   </g>
   <g id="patch_10">
    <path d="M 107.64 604.677639
L 576.36 604.677639
Q 582.3864 604.677639 582.3864 598.690119
L 582.3864 555.446919
Q 582.3864 549.459399 576.36 549.459399
L 107.64 549.459399
Q 101.6136 549.459399 101.6136 555.446919
L 101.6136 598.690119
Q 101.6136 604.677639 107.64 604.677639
z
" clip-path="url(#p50c4172078)" style="fill: #e8f1f8; stroke: #456174; stroke-width: 1.2; stroke-linejoin: miter"/>
   </g>
   <g id="patch_11">
    <path d="M 107.64 671.205639
L 576.36 671.205639
Q 582.3864 671.205639 582.3864 665.218119
L 582.3864 621.974919
Q 582.3864 615.987399 576.36 615.987399
L 107.64 615.987399
Q 101.6136 615.987399 101.6136 621.974919
L 101.6136 665.218119
Q 101.6136 671.205639 107.64 671.205639
z
" clip-path="url(#p50c4172078)" style="fill: #fff1d5; stroke: #456174; stroke-width: 1.2; stroke-linejoin: miter"/>
   </g>
   <g id="text_1">
    <text style="font-size: 12px; font-family: 'DejaVu Sans'; text-anchor: middle" x="342" y="81.419769" transform="rotate(-0 342 81.419769)">Geographic source data / mapped delivery proxies</text>
   </g>
   <g id="text_2">
    <text style="font-size: 12px; font-family: 'DejaVu Sans'; text-anchor: middle" x="342" y="147.947769" transform="rotate(-0 342 147.947769)">Accepted directed road network</text>
   </g>
   <g id="text_3">
    <text style="font-size: 12px; font-family: 'DejaVu Sans'; text-anchor: middle" x="342" y="214.475769" transform="rotate(-0 342 214.475769)">Saved OD: distance, travel time, reachability</text>
   </g>
   <g id="text_4">
    <text style="font-size: 12px; font-family: 'DejaVu Sans'; text-anchor: middle" x="342" y="281.003769" transform="rotate(-0 342 281.003769)">Delivery model: VRPTW / EVRP constraints</text>
   </g>
   <g id="patch_12">
    <path d="M 342 104.721343
Q 342 111.372056 342 116.345719
" style="fill: none; stroke: #456174; stroke-width: 1.5; stroke-linecap: round"/>
    <path d="M 344.4 111.545719
L 342 116.345719
L 339.6 111.545719
" style="fill: none; stroke: #456174; stroke-width: 1.5; stroke-linecap: round"/>
   </g>
   <g id="patch_13">
    <path d="M 342 171.249343
Q 342 177.900056 342 182.873719
" style="fill: none; stroke: #456174; stroke-width: 1.5; stroke-linecap: round"/>
    <path d="M 344.4 178.073719
L 342 182.873719
L 339.6 178.073719
" style="fill: none; stroke: #456174; stroke-width: 1.5; stroke-linecap: round"/>
   </g>
   <g id="patch_14">
    <path d="M 342 237.777343
Q 342 244.428056 342 249.401719
" style="fill: none; stroke: #456174; stroke-width: 1.5; stroke-linecap: round"/>
    <path d="M 344.4 244.601719
L 342 249.401719
L 339.6 244.601719
" style="fill: none; stroke: #456174; stroke-width: 1.5; stroke-linecap: round"/>
   </g>
   <g id="text_5">
    <text style="font-size: 12px; font-family: 'DejaVu Sans'; text-anchor: middle" x="161.208" y="360.837369" transform="rotate(-0 161.208 360.837369)">Classical reference</text>
   </g>
   <g id="text_6">
    <text style="font-size: 12px; font-family: 'DejaVu Sans'; text-anchor: middle" x="516.096" y="360.837369" transform="rotate(-0 516.096 360.837369)">QUBO → fixed QAOA circuit</text>
   </g>
   <g id="patch_15">
    <path d="M 273.105051 301.486207
Q 218.124629 315.945953 164.766104 329.979144
" style="fill: none; stroke: #456174; stroke-width: 1.5; stroke-linecap: round"/>
    <path d="M 170.018681 331.07934
L 164.766104 329.979144
L 168.797807 326.4372
" style="fill: none; stroke: #456174; stroke-width: 1.5; stroke-linecap: round"/>
   </g>
   <g id="patch_16">
    <path d="M 410.885754 301.515443
Q 462.529254 315.946469 512.557577 329.926158
" style="fill: none; stroke: #456174; stroke-width: 1.5; stroke-linecap: round"/>
    <path d="M 508.580575 326.322902
L 512.557577 329.926158
L 507.288771 330.945807
" style="fill: none; stroke: #456174; stroke-width: 1.5; stroke-linecap: round"/>
   </g>
   <g id="text_7">
    <text style="font-size: 12px; font-family: 'DejaVu Sans'; text-anchor: middle" x="516.096" y="434.018169" transform="rotate(-0 516.096 434.018169)">Dense / MPS simulators</text>
   </g>
   <g id="patch_17">
    <path d="M 516.096 386.13998
Q 516.096 394.116168 516.096 400.415305
" style="fill: none; stroke: #456174; stroke-width: 1.5; stroke-linecap: round"/>
    <path d="M 518.496 395.615305
L 516.096 400.415305
L 513.696 395.615305
" style="fill: none; stroke: #456174; stroke-width: 1.5; stroke-linecap: round"/>
   </g>
   <g id="text_8">
    <text style="font-size: 12px; font-family: 'DejaVu Sans'; text-anchor: middle" x="516.096" y="507.198969" transform="rotate(-0 516.096 507.198969)">64-shot sampling → decoder</text>
   </g>
   <g id="patch_18">
    <path d="M 516.096 459.32078
Q 516.096 467.296968 516.096 473.596105
" style="fill: none; stroke: #456174; stroke-width: 1.5; stroke-linecap: round"/>
    <path d="M 518.496 468.796105
L 516.096 473.596105
L 513.696 468.796105
" style="fill: none; stroke: #456174; stroke-width: 1.5; stroke-linecap: round"/>
   </g>
   <g id="text_9">
    <text style="font-size: 12px; font-family: 'DejaVu Sans'; text-anchor: middle" x="342" y="580.379769" transform="rotate(-0 342 580.379769)">Independent physical validator</text>
   </g>
   <g id="patch_19">
    <path d="M 161.208 386.139676
Q 161.208 467.299343 161.208 546.781959
" style="fill: none; stroke: #456174; stroke-width: 1.5; stroke-linecap: round"/>
    <path d="M 163.608 541.981959
L 161.208 546.781959
L 158.808 541.981959
" style="fill: none; stroke: #456174; stroke-width: 1.5; stroke-linecap: round"/>
   </g>
   <g id="patch_20">
    <path d="M 163.209566 550.523607
Q 211.429919 552.120582 257.97414 553.662047
" style="fill: none; stroke: #456174; stroke-width: 1.5; stroke-linecap: round"/>
    <path d="M 253.25621 551.104481
L 257.97414 553.662047
L 253.09733 555.901851
" style="fill: none; stroke: #456174; stroke-width: 1.5; stroke-linecap: round"/>
   </g>
   <g id="patch_21">
    <path d="M 514.15349 530.981413
Q 469.223485 542.141447 425.921075 552.897207
" style="fill: none; stroke: #456174; stroke-width: 1.5; stroke-linecap: round"/>
    <path d="M 431.15807 554.069332
L 425.921075 552.897207
L 430.000972 549.410885
" style="fill: none; stroke: #456174; stroke-width: 1.5; stroke-linecap: round"/>
   </g>
   <g id="text_10">
    <text style="font-size: 12px; font-family: 'DejaVu Sans'; text-anchor: middle" x="342" y="646.907769" transform="rotate(-0 342 646.907769)">Routes / time / vehicles → EV operating energy*</text>
   </g>
   <g id="patch_22">
    <path d="M 342 605.677508
Q 342 610.330661 342 613.306763
" style="fill: none; stroke: #456174; stroke-width: 1.5; stroke-linecap: round"/>
    <path d="M 344.4 608.506763
L 342 613.306763
L 339.6 608.506763
" style="fill: none; stroke: #456174; stroke-width: 1.5; stroke-linecap: round"/>
   </g>
   <g id="text_11">
    <text style="font-size: 10px; font-family: 'DejaVu Sans'; text-anchor: middle" x="342" y="700.145319" transform="rotate(-0 342 700.145319)">* EV-energy evaluation is a separate research stage; this smoke test does not establish energy savings.</text>
   </g>
   <g id="text_12">
    <text style="font-size: 17px; font-family: 'DejaVu Sans'; text-anchor: middle" x="342" y="20.191719" transform="rotate(-0 342 20.191719)">Computation platform | validated scope and research extensions</text>
   </g>
  </g>
 </g>
 <defs>
  <clipPath id="p50c4172078">
   <rect x="7.2" y="38.191719" width="669.6" height="665.28"/>
  </clipPath>
 </defs>
</svg>
