<?xml version="1.0" encoding="utf-8" standalone="no"?>
<!DOCTYPE svg PUBLIC "-//W3C//DTD SVG 1.1//EN"
  "http://www.w3.org/Graphics/SVG/1.1/DTD/svg11.dtd">
<svg xmlns:xlink="http://www.w3.org/1999/xlink" width="628.2pt" height="755.065312pt" viewBox="0 0 628.2 755.065312" xmlns="http://www.w3.org/2000/svg" version="1.1">
 <metadata>
  <rdf:RDF xmlns:dc="http://purl.org/dc/elements/1.1/" xmlns:cc="http://creativecommons.org/ns#" xmlns:rdf="http://www.w3.org/1999/02/22-rdf-syntax-ns#">
   <cc:Work>
    <dc:type rdf:resource="http://purl.org/dc/dcmitype/StillImage"/>
    <dc:date>2026-09-28T16:07:17.830237</dc:date>
    <dc:format>image/svg+xml</dc:format>
    <dc:creator>
     <cc:Agent>
      <dc:title>Matplotlib v3.11.0, https://matplotlib.org/</dc:title>
     </cc:Agent>
    </dc:creator>
   </cc:Work>
  </rdf:RDF>
 </metadata>
 <defs>
  <style type="text/css">*{stroke-linejoin: round; stroke-linecap: butt}</style>
 </defs>
 <g id="figure_1">
  <g id="patch_1">
   <path d="M 0 755.065312
L 628.2 755.065312
L 628.2 0
L 0 0
z
" style="fill: #ffffff"/>
  </g>
  <g id="axes_1">
   <g id="patch_2">
    <path d="M 25.614 98.496593
L 602.586 98.496593
Q 608.1102 98.496593 608.1102 92.010112
L 608.1102 48.766912
Q 608.1102 42.280433 602.586 42.280433
L 25.614 42.280433
Q 20.0898 42.280433 20.0898 48.766912
L 20.0898 92.010112
Q 20.0898 98.496593 25.614 98.496593
z
" clip-path="url(#pa9692da623)" style="fill: #e8f1f8; stroke: #456174; stroke-width: 1.2; stroke-linejoin: miter"/>
   </g>
   <g id="patch_3">
    <path d="M 25.614 170.568592
L 602.586 170.568592
Q 608.1102 170.568592 608.1102 164.082112
L 608.1102 120.838912
Q 608.1102 114.352432 602.586 114.352432
L 25.614 114.352432
Q 20.0898 114.352432 20.0898 120.838912
L 20.0898 164.082112
Q 20.0898 170.568592 25.614 170.568592
z
" clip-path="url(#pa9692da623)" style="fill: #e8f1f8; stroke: #456174; stroke-width: 1.2; stroke-linejoin: miter"/>
   </g>
   <g id="patch_4">
    <path d="M 25.614 242.640592
L 602.586 242.640592
Q 608.1102 242.640592 608.1102 236.154112
L 608.1102 192.910912
Q 608.1102 186.424432 602.586 186.424432
L 25.614 186.424432
Q 20.0898 186.424432 20.0898 192.910912
L 20.0898 236.154112
Q 20.0898 242.640592 25.614 242.640592
z
" clip-path="url(#pa9692da623)" style="fill: #e8f1f8; stroke: #456174; stroke-width: 1.2; stroke-linejoin: miter"/>
   </g>
   <g id="patch_5">
    <path d="M 25.614 314.712592
L 602.586 314.712592
Q 608.1102 314.712592 608.1102 308.226112
L 608.1102 264.982913
Q 608.1102 258.496433 602.586 258.496433
L 25.614 258.496433
Q 20.0898 258.496433 20.0898 264.982913
L 20.0898 308.226112
Q 20.0898 314.712592 25.614 314.712592
z
" clip-path="url(#pa9692da623)" style="fill: #e8f1f8; stroke: #456174; stroke-width: 1.2; stroke-linejoin: miter"/>
   </g>
   <g id="patch_6">
    <path d="M 25.614 386.784592
L 602.586 386.784592
Q 608.1102 386.784592 608.1102 380.298112
L 608.1102 337.054913
Q 608.1102 330.568433 602.586 330.568433
L 25.614 330.568433
Q 20.0898 330.568433 20.0898 337.054913
L 20.0898 380.298112
Q 20.0898 386.784592 25.614 386.784592
z
" clip-path="url(#pa9692da623)" style="fill: #e8f1f8; stroke: #456174; stroke-width: 1.2; stroke-linejoin: miter"/>
   </g>
   <g id="patch_7">
    <path d="M 25.614 458.856592
L 602.586 458.856592
Q 608.1102 458.856592 608.1102 452.370112
L 608.1102 409.126912
Q 608.1102 402.640432 602.586 402.640432
L 25.614 402.640432
Q 20.0898 402.640432 20.0898 409.126912
L 20.0898 452.370112
Q 20.0898 458.856592 25.614 458.856592
z
" clip-path="url(#pa9692da623)" style="fill: #e8f1f8; stroke: #456174; stroke-width: 1.2; stroke-linejoin: miter"/>
   </g>
   <g id="patch_8">
    <path d="M 25.614 530.928593
L 602.586 530.928593
Q 608.1102 530.928593 608.1102 524.442113
L 608.1102 481.198913
Q 608.1102 474.712432 602.586 474.712432
L 25.614 474.712432
Q 20.0898 474.712432 20.0898 481.198913
L 20.0898 524.442113
Q 20.0898 530.928593 25.614 530.928593
z
" clip-path="url(#pa9692da623)" style="fill: #e8f1f8; stroke: #456174; stroke-width: 1.2; stroke-linejoin: miter"/>
   </g>
   <g id="patch_9">
    <path d="M 25.614 603.000592
L 602.586 603.000592
Q 608.1102 603.000592 608.1102 596.514113
L 608.1102 553.270913
Q 608.1102 546.784432 602.586 546.784432
L 25.614 546.784432
Q 20.0898 546.784432 20.0898 553.270913
L 20.0898 596.514113
Q 20.0898 603.000592 25.614 603.000592
z
" clip-path="url(#pa9692da623)" style="fill: #e8f1f8; stroke: #456174; stroke-width: 1.2; stroke-linejoin: miter"/>
   </g>
   <g id="patch_10">
    <path d="M 25.614 675.072592
L 602.586 675.072592
Q 608.1102 675.072592 608.1102 668.586112
L 608.1102 625.342912
Q 608.1102 618.856432 602.586 618.856432
L 25.614 618.856432
Q 20.0898 618.856432 20.0898 625.342912
L 20.0898 668.586112
Q 20.0898 675.072592 25.614 675.072592
z
" clip-path="url(#pa9692da623)" style="fill: #e8f1f8; stroke: #456174; stroke-width: 1.2; stroke-linejoin: miter"/>
   </g>
   <g id="text_1">
    <text style="font-size: 12px; font-family: 'DejaVu Sans', 'Droid Sans Fallback'; text-anchor: middle" x="314.1" y="73.845544" transform="rotate(-0 314.1 73.845544)">配送問題 → 変数と物理制約</text>
   </g>
   <g id="text_2">
    <text style="font-size: 12px; font-family: 'DejaVu Sans', 'Droid Sans Fallback'; text-anchor: middle" x="314.1" y="145.940981" transform="rotate(-0 314.1 145.940981)">二値二次最適化：20変数・72結合</text>
   </g>
   <g id="patch_11">
    <path d="M 314.1 98.333568
Q 314.1 107.504391 314.1 114.998163
" style="fill: none; stroke: #456174; stroke-width: 1.5; stroke-linecap: round"/>
    <path d="M 316.5 110.198163
L 314.1 114.998163
L 311.7 110.198163
" style="fill: none; stroke: #456174; stroke-width: 1.5; stroke-linecap: round"/>
   </g>
   <g id="text_3">
    <text style="font-size: 12px; font-family: 'DejaVu Sans', 'Droid Sans Fallback'; text-anchor: middle" x="314.1" y="218.247356" transform="rotate(-0 314.1 218.247356)">初期状態：全量子ビットにアダマールゲート</text>
   </g>
   <g id="patch_12">
    <path d="M 314.1 170.405568
Q 314.1 179.576391 314.1 187.070163
" style="fill: none; stroke: #456174; stroke-width: 1.5; stroke-linecap: round"/>
    <path d="M 316.5 182.270163
L 314.1 187.070163
L 311.7 182.270163
" style="fill: none; stroke: #456174; stroke-width: 1.5; stroke-linecap: round"/>
   </g>
   <g id="text_4">
    <text style="font-size: 12px; font-family: 'DejaVu Sans', 'Droid Sans Fallback'; text-anchor: middle" x="314.1" y="290.084981" transform="rotate(-0 314.1 290.084981)">固定量子近似最適化回路：1層・制御反転144個・論理深さ60</text>
   </g>
   <g id="patch_13">
    <path d="M 314.1 242.477568
Q 314.1 251.648391 314.1 259.142163
" style="fill: none; stroke: #456174; stroke-width: 1.5; stroke-linecap: round"/>
    <path d="M 316.5 254.342163
L 314.1 259.142163
L 311.7 254.342163
" style="fill: none; stroke: #456174; stroke-width: 1.5; stroke-linecap: round"/>
   </g>
   <g id="text_5">
    <text style="font-size: 12px; font-family: 'DejaVu Sans', 'Droid Sans Fallback'; text-anchor: middle" x="314.1" y="362.156981" transform="rotate(-0 314.1 362.156981)">全状態ベクトル方式・行列積状態方式</text>
   </g>
   <g id="patch_14">
    <path d="M 314.1 314.549568
Q 314.1 323.720391 314.1 331.214163
" style="fill: none; stroke: #456174; stroke-width: 1.5; stroke-linecap: round"/>
    <path d="M 316.5 326.414163
L 314.1 331.214163
L 311.7 326.414163
" style="fill: none; stroke: #456174; stroke-width: 1.5; stroke-linecap: round"/>
   </g>
   <g id="text_6">
    <text style="font-size: 12px; font-family: 'DejaVu Sans', 'Droid Sans Fallback'; text-anchor: middle" x="314.1" y="434.228981" transform="rotate(-0 314.1 434.228981)">量子状態の検証：第2版手順の四層監査</text>
   </g>
   <g id="patch_15">
    <path d="M 314.1 386.621568
Q 314.1 395.792391 314.1 403.286163
" style="fill: none; stroke: #456174; stroke-width: 1.5; stroke-linecap: round"/>
    <path d="M 316.5 398.486163
L 314.1 403.286163
L 311.7 398.486163
" style="fill: none; stroke: #456174; stroke-width: 1.5; stroke-linecap: round"/>
   </g>
   <g id="text_7">
    <text style="font-size: 12px; font-family: 'DejaVu Sans', 'Droid Sans Fallback'; text-anchor: middle" x="314.1" y="506.277544" transform="rotate(-0 314.1 506.277544)">別実行の有限回測定：各方式64回・乱数の種20260927</text>
   </g>
   <g id="patch_16">
    <path d="M 314.1 458.693568
Q 314.1 467.864391 314.1 475.358163
" style="fill: none; stroke: #456174; stroke-width: 1.5; stroke-linecap: round"/>
    <path d="M 316.5 470.558163
L 314.1 475.358163
L 311.7 470.558163
" style="fill: none; stroke: #456174; stroke-width: 1.5; stroke-linecap: round"/>
   </g>
   <g id="text_8">
    <text style="font-size: 12px; font-family: 'DejaVu Sans', 'Droid Sans Fallback'; text-anchor: middle" x="314.1" y="578.583919" transform="rotate(-0 314.1 578.583919)">20ビットの未加工測定度数 → 復号（修復・除外なし）</text>
   </g>
   <g id="patch_17">
    <path d="M 314.1 530.765568
Q 314.1 539.936391 314.1 547.430163
" style="fill: none; stroke: #456174; stroke-width: 1.5; stroke-linecap: round"/>
    <path d="M 316.5 542.630163
L 314.1 547.430163
L 311.7 542.630163
" style="fill: none; stroke: #456174; stroke-width: 1.5; stroke-linecap: round"/>
   </g>
   <g id="text_9">
    <text style="font-size: 12px; font-family: 'DejaVu Sans', 'Droid Sans Fallback'; text-anchor: middle" x="314.1" y="650.444981" transform="rotate(-0 314.1 650.444981)">独立した物理検証 → 整合性判定・停止</text>
   </g>
   <g id="patch_18">
    <path d="M 314.1 602.837568
Q 314.1 612.008391 314.1 619.502163
" style="fill: none; stroke: #456174; stroke-width: 1.5; stroke-linecap: round"/>
    <path d="M 316.5 614.702163
L 314.1 619.502163
L 311.7 614.702163
" style="fill: none; stroke: #456174; stroke-width: 1.5; stroke-linecap: round"/>
   </g>
   <g id="text_10">
    <text style="font-size: 12px; font-family: 'DejaVu Sans', 'Droid Sans Fallback'; fill: #943b24" transform="translate(164.1 718.532691)">両方式とも、同一の量子回路を古典計算機で模擬する。</text>
    <text style="font-size: 12px; font-family: 'DejaVu Sans', 'Droid Sans Fallback'; fill: #943b24" transform="translate(158.1 733.661597)">状態検証と測定は別実行。測定時には状態を出力しない。</text>
   </g>
   <g id="text_11">
    <text style="font-size: 17px; font-family: 'DejaVu Sans', 'Droid Sans Fallback'; text-anchor: middle" x="314.1" y="21.145312" transform="rotate(-0 314.1 21.145312)">量子回路の処理：顧客2地点・車両2台・中程度の時間窓</text>
   </g>
  </g>
 </g>
 <defs>
  <clipPath id="pa9692da623">
   <rect x="7.2" y="27.145312" width="613.8" height="720.72"/>
  </clipPath>
 </defs>
</svg>
