<?xml version="1.0" encoding="utf-8" standalone="no"?>
<!DOCTYPE svg PUBLIC "-//W3C//DTD SVG 1.1//EN"
  "http://www.w3.org/Graphics/SVG/1.1/DTD/svg11.dtd">
<svg xmlns:xlink="http://www.w3.org/1999/xlink" width="557.56875pt" height="365.27125pt" viewBox="0 0 557.56875 365.27125" xmlns="http://www.w3.org/2000/svg" version="1.1">
 <metadata>
  <rdf:RDF xmlns:dc="http://purl.org/dc/elements/1.1/" xmlns:cc="http://creativecommons.org/ns#" xmlns:rdf="http://www.w3.org/1999/02/22-rdf-syntax-ns#">
   <cc:Work>
    <dc:type rdf:resource="http://purl.org/dc/dcmitype/StillImage"/>
    <dc:date>2026-07-11T16:31:23.420684</dc:date>
    <dc:format>image/svg+xml</dc:format>
    <dc:creator>
     <cc:Agent>
      <dc:title>Matplotlib v3.10.7, https://matplotlib.org/</dc:title>
     </cc:Agent>
    </dc:creator>
   </cc:Work>
  </rdf:RDF>
 </metadata>
 <defs>
  <style type="text/css">*{stroke-linejoin: round; stroke-linecap: butt}</style>
 </defs>
 <g id="figure_1">
  <g id="patch_1">
   <path d="M 0 365.27125 
L 557.56875 365.27125 
L 557.56875 0 
L 0 0 
z
" style="fill: #ffffff"/>
  </g>
  <g id="axes_1">
   <g id="patch_2">
    <path d="M 48.16875 327.37125 
L 550.36875 327.37125 
L 550.36875 22.45125 
L 48.16875 22.45125 
z
" style="fill: #ffffff"/>
   </g>
   <g id="patch_3">
    <path d="M 70.996023 327.37125 
L 76.172823 327.37125 
L 76.172823 178.127706 
L 70.996023 178.127706 
z
" clip-path="url(#pb6d60c0d90)" style="fill: #1f77b4; opacity: 0.45"/>
   </g>
   <g id="patch_4">
    <path d="M 76.172823 327.37125 
L 81.349622 327.37125 
L 81.349622 74.465934 
L 76.172823 74.465934 
z
" clip-path="url(#pb6d60c0d90)" style="fill: #1f77b4; opacity: 0.45"/>
   </g>
   <g id="patch_5">
    <path d="M 81.349622 327.37125 
L 86.526422 327.37125 
L 86.526422 81.082642 
L 81.349622 81.082642 
z
" clip-path="url(#pb6d60c0d90)" style="fill: #1f77b4; opacity: 0.45"/>
   </g>
   <g id="patch_6">
    <path d="M 86.526422 327.37125 
L 91.703222 327.37125 
L 91.703222 107.549478 
L 86.526422 107.549478 
z
" clip-path="url(#pb6d60c0d90)" style="fill: #1f77b4; opacity: 0.45"/>
   </g>
   <g id="patch_7">
    <path d="M 91.703222 327.37125 
L 96.880022 327.37125 
L 96.880022 95.05125 
L 91.703222 95.05125 
z
" clip-path="url(#pb6d60c0d90)" style="fill: #1f77b4; opacity: 0.45"/>
   </g>
   <g id="patch_8">
    <path d="M 96.880022 327.37125 
L 102.056822 327.37125 
L 102.056822 106.079098 
L 96.880022 106.079098 
z
" clip-path="url(#pb6d60c0d90)" style="fill: #1f77b4; opacity: 0.45"/>
   </g>
   <g id="patch_9">
    <path d="M 102.056822 327.37125 
L 107.233621 327.37125 
L 107.233621 163.423908 
L 102.056822 163.423908 
z
" clip-path="url(#pb6d60c0d90)" style="fill: #1f77b4; opacity: 0.45"/>
   </g>
   <g id="patch_10">
    <path d="M 107.233621 327.37125 
L 112.410421 327.37125 
L 112.410421 212.68163 
L 107.233621 212.68163 
z
" clip-path="url(#pb6d60c0d90)" style="fill: #1f77b4; opacity: 0.45"/>
   </g>
   <g id="patch_11">
    <path d="M 112.410421 327.37125 
L 117.587221 327.37125 
L 117.587221 259.733782 
L 112.410421 259.733782 
z
" clip-path="url(#pb6d60c0d90)" style="fill: #1f77b4; opacity: 0.45"/>
   </g>
   <g id="patch_12">
    <path d="M 117.587221 327.37125 
L 122.764021 327.37125 
L 122.764021 258.263402 
L 117.587221 258.263402 
z
" clip-path="url(#pb6d60c0d90)" style="fill: #1f77b4; opacity: 0.45"/>
   </g>
   <g id="patch_13">
    <path d="M 122.764021 327.37125 
L 127.940821 327.37125 
L 127.940821 267.08568 
L 122.764021 267.08568 
z
" clip-path="url(#pb6d60c0d90)" style="fill: #1f77b4; opacity: 0.45"/>
   </g>
   <g id="patch_14">
    <path d="M 127.940821 327.37125 
L 133.117621 327.37125 
L 133.117621 295.758085 
L 127.940821 295.758085 
z
" clip-path="url(#pb6d60c0d90)" style="fill: #1f77b4; opacity: 0.45"/>
   </g>
   <g id="patch_15">
    <path d="M 133.117621 327.37125 
L 138.29442 327.37125 
L 138.29442 301.639604 
L 133.117621 301.639604 
z
" clip-path="url(#pb6d60c0d90)" style="fill: #1f77b4; opacity: 0.45"/>
   </g>
   <g id="patch_16">
    <path d="M 138.29442 327.37125 
L 143.47122 327.37125 
L 143.47122 297.963655 
L 138.29442 297.963655 
z
" clip-path="url(#pb6d60c0d90)" style="fill: #1f77b4; opacity: 0.45"/>
   </g>
   <g id="patch_17">
    <path d="M 143.47122 327.37125 
L 148.64802 327.37125 
L 148.64802 279.583908 
L 143.47122 279.583908 
z
" clip-path="url(#pb6d60c0d90)" style="fill: #1f77b4; opacity: 0.45"/>
   </g>
   <g id="patch_18">
    <path d="M 148.64802 327.37125 
L 153.82482 327.37125 
L 153.82482 322.224921 
L 148.64802 322.224921 
z
" clip-path="url(#pb6d60c0d90)" style="fill: #1f77b4; opacity: 0.45"/>
   </g>
   <g id="patch_19">
    <path d="M 153.82482 327.37125 
L 159.00162 327.37125 
L 159.00162 324.430491 
L 153.82482 324.430491 
z
" clip-path="url(#pb6d60c0d90)" style="fill: #1f77b4; opacity: 0.45"/>
   </g>
   <g id="patch_20">
    <path d="M 159.00162 327.37125 
L 164.178419 327.37125 
L 164.178419 321.489731 
L 159.00162 321.489731 
z
" clip-path="url(#pb6d60c0d90)" style="fill: #1f77b4; opacity: 0.45"/>
   </g>
   <g id="patch_21">
    <path d="M 164.178419 327.37125 
L 169.355219 327.37125 
L 169.355219 321.489731 
L 164.178419 321.489731 
z
" clip-path="url(#pb6d60c0d90)" style="fill: #1f77b4; opacity: 0.45"/>
   </g>
   <g id="patch_22">
    <path d="M 169.355219 327.37125 
L 174.532019 327.37125 
L 174.532019 324.430491 
L 169.355219 324.430491 
z
" clip-path="url(#pb6d60c0d90)" style="fill: #1f77b4; opacity: 0.45"/>
   </g>
   <g id="patch_23">
    <path d="M 174.532019 327.37125 
L 179.708819 327.37125 
L 179.708819 325.16568 
L 174.532019 325.16568 
z
" clip-path="url(#pb6d60c0d90)" style="fill: #1f77b4; opacity: 0.45"/>
   </g>
   <g id="patch_24">
    <path d="M 179.708819 327.37125 
L 184.885619 327.37125 
L 184.885619 325.90087 
L 179.708819 325.90087 
z
" clip-path="url(#pb6d60c0d90)" style="fill: #1f77b4; opacity: 0.45"/>
   </g>
   <g id="patch_25">
    <path d="M 184.885619 327.37125 
L 190.062419 327.37125 
L 190.062419 323.695301 
L 184.885619 323.695301 
z
" clip-path="url(#pb6d60c0d90)" style="fill: #1f77b4; opacity: 0.45"/>
   </g>
   <g id="patch_26">
    <path d="M 190.062419 327.37125 
L 195.239218 327.37125 
L 195.239218 305.315554 
L 190.062419 305.315554 
z
" clip-path="url(#pb6d60c0d90)" style="fill: #1f77b4; opacity: 0.45"/>
   </g>
   <g id="patch_27">
    <path d="M 195.239218 327.37125 
L 200.416018 327.37125 
L 200.416018 327.37125 
L 195.239218 327.37125 
z
" clip-path="url(#pb6d60c0d90)" style="fill: #1f77b4; opacity: 0.45"/>
   </g>
   <g id="patch_28">
    <path d="M 200.416018 327.37125 
L 205.592818 327.37125 
L 205.592818 327.37125 
L 200.416018 327.37125 
z
" clip-path="url(#pb6d60c0d90)" style="fill: #1f77b4; opacity: 0.45"/>
   </g>
   <g id="patch_29">
    <path d="M 205.592818 327.37125 
L 210.769618 327.37125 
L 210.769618 327.37125 
L 205.592818 327.37125 
z
" clip-path="url(#pb6d60c0d90)" style="fill: #1f77b4; opacity: 0.45"/>
   </g>
   <g id="patch_30">
    <path d="M 210.769618 327.37125 
L 215.946418 327.37125 
L 215.946418 327.37125 
L 210.769618 327.37125 
z
" clip-path="url(#pb6d60c0d90)" style="fill: #1f77b4; opacity: 0.45"/>
   </g>
   <g id="patch_31">
    <path d="M 215.946418 327.37125 
L 221.123217 327.37125 
L 221.123217 327.37125 
L 215.946418 327.37125 
z
" clip-path="url(#pb6d60c0d90)" style="fill: #1f77b4; opacity: 0.45"/>
   </g>
   <g id="patch_32">
    <path d="M 221.123217 327.37125 
L 226.300017 327.37125 
L 226.300017 326.63606 
L 221.123217 326.63606 
z
" clip-path="url(#pb6d60c0d90)" style="fill: #1f77b4; opacity: 0.45"/>
   </g>
   <g id="patch_33">
    <path d="M 70.996023 327.37125 
L 76.172823 327.37125 
L 76.172823 178.127706 
L 70.996023 178.127706 
z
" clip-path="url(#pb6d60c0d90)" style="fill: #ff7f0e; opacity: 0.45"/>
   </g>
   <g id="patch_34">
    <path d="M 76.172823 327.37125 
L 81.349622 327.37125 
L 81.349622 74.465934 
L 76.172823 74.465934 
z
" clip-path="url(#pb6d60c0d90)" style="fill: #ff7f0e; opacity: 0.45"/>
   </g>
   <g id="patch_35">
    <path d="M 81.349622 327.37125 
L 86.526422 327.37125 
L 86.526422 81.082642 
L 81.349622 81.082642 
z
" clip-path="url(#pb6d60c0d90)" style="fill: #ff7f0e; opacity: 0.45"/>
   </g>
   <g id="patch_36">
    <path d="M 86.526422 327.37125 
L 91.703222 327.37125 
L 91.703222 107.549478 
L 86.526422 107.549478 
z
" clip-path="url(#pb6d60c0d90)" style="fill: #ff7f0e; opacity: 0.45"/>
   </g>
   <g id="patch_37">
    <path d="M 91.703222 327.37125 
L 96.880022 327.37125 
L 96.880022 95.05125 
L 91.703222 95.05125 
z
" clip-path="url(#pb6d60c0d90)" style="fill: #ff7f0e; opacity: 0.45"/>
   </g>
   <g id="patch_38">
    <path d="M 96.880022 327.37125 
L 102.056822 327.37125 
L 102.056822 106.079098 
L 96.880022 106.079098 
z
" clip-path="url(#pb6d60c0d90)" style="fill: #ff7f0e; opacity: 0.45"/>
   </g>
   <g id="patch_39">
    <path d="M 102.056822 327.37125 
L 107.233621 327.37125 
L 107.233621 163.423908 
L 102.056822 163.423908 
z
" clip-path="url(#pb6d60c0d90)" style="fill: #ff7f0e; opacity: 0.45"/>
   </g>
   <g id="patch_40">
    <path d="M 107.233621 327.37125 
L 112.410421 327.37125 
L 112.410421 212.68163 
L 107.233621 212.68163 
z
" clip-path="url(#pb6d60c0d90)" style="fill: #ff7f0e; opacity: 0.45"/>
   </g>
   <g id="patch_41">
    <path d="M 112.410421 327.37125 
L 117.587221 327.37125 
L 117.587221 259.733782 
L 112.410421 259.733782 
z
" clip-path="url(#pb6d60c0d90)" style="fill: #ff7f0e; opacity: 0.45"/>
   </g>
   <g id="patch_42">
    <path d="M 117.587221 327.37125 
L 122.764021 327.37125 
L 122.764021 258.263402 
L 117.587221 258.263402 
z
" clip-path="url(#pb6d60c0d90)" style="fill: #ff7f0e; opacity: 0.45"/>
   </g>
   <g id="patch_43">
    <path d="M 122.764021 327.37125 
L 127.940821 327.37125 
L 127.940821 267.08568 
L 122.764021 267.08568 
z
" clip-path="url(#pb6d60c0d90)" style="fill: #ff7f0e; opacity: 0.45"/>
   </g>
   <g id="patch_44">
    <path d="M 127.940821 327.37125 
L 133.117621 327.37125 
L 133.117621 295.758085 
L 127.940821 295.758085 
z
" clip-path="url(#pb6d60c0d90)" style="fill: #ff7f0e; opacity: 0.45"/>
   </g>
   <g id="patch_45">
    <path d="M 133.117621 327.37125 
L 138.29442 327.37125 
L 138.29442 301.639604 
L 133.117621 301.639604 
z
" clip-path="url(#pb6d60c0d90)" style="fill: #ff7f0e; opacity: 0.45"/>
   </g>
   <g id="patch_46">
    <path d="M 138.29442 327.37125 
L 143.47122 327.37125 
L 143.47122 297.963655 
L 138.29442 297.963655 
z
" clip-path="url(#pb6d60c0d90)" style="fill: #ff7f0e; opacity: 0.45"/>
   </g>
   <g id="patch_47">
    <path d="M 143.47122 327.37125 
L 148.64802 327.37125 
L 148.64802 279.583908 
L 143.47122 279.583908 
z
" clip-path="url(#pb6d60c0d90)" style="fill: #ff7f0e; opacity: 0.45"/>
   </g>
   <g id="patch_48">
    <path d="M 148.64802 327.37125 
L 153.82482 327.37125 
L 153.82482 322.224921 
L 148.64802 322.224921 
z
" clip-path="url(#pb6d60c0d90)" style="fill: #ff7f0e; opacity: 0.45"/>
   </g>
   <g id="patch_49">
    <path d="M 153.82482 327.37125 
L 159.00162 327.37125 
L 159.00162 324.430491 
L 153.82482 324.430491 
z
" clip-path="url(#pb6d60c0d90)" style="fill: #ff7f0e; opacity: 0.45"/>
   </g>
   <g id="patch_50">
    <path d="M 159.00162 327.37125 
L 164.178419 327.37125 
L 164.178419 321.489731 
L 159.00162 321.489731 
z
" clip-path="url(#pb6d60c0d90)" style="fill: #ff7f0e; opacity: 0.45"/>
   </g>
   <g id="patch_51">
    <path d="M 164.178419 327.37125 
L 169.355219 327.37125 
L 169.355219 321.489731 
L 164.178419 321.489731 
z
" clip-path="url(#pb6d60c0d90)" style="fill: #ff7f0e; opacity: 0.45"/>
   </g>
   <g id="patch_52">
    <path d="M 169.355219 327.37125 
L 174.532019 327.37125 
L 174.532019 324.430491 
L 169.355219 324.430491 
z
" clip-path="url(#pb6d60c0d90)" style="fill: #ff7f0e; opacity: 0.45"/>
   </g>
   <g id="patch_53">
    <path d="M 174.532019 327.37125 
L 179.708819 327.37125 
L 179.708819 325.16568 
L 174.532019 325.16568 
z
" clip-path="url(#pb6d60c0d90)" style="fill: #ff7f0e; opacity: 0.45"/>
   </g>
   <g id="patch_54">
    <path d="M 179.708819 327.37125 
L 184.885619 327.37125 
L 184.885619 325.90087 
L 179.708819 325.90087 
z
" clip-path="url(#pb6d60c0d90)" style="fill: #ff7f0e; opacity: 0.45"/>
   </g>
   <g id="patch_55">
    <path d="M 184.885619 327.37125 
L 190.062419 327.37125 
L 190.062419 323.695301 
L 184.885619 323.695301 
z
" clip-path="url(#pb6d60c0d90)" style="fill: #ff7f0e; opacity: 0.45"/>
   </g>
   <g id="patch_56">
    <path d="M 190.062419 327.37125 
L 195.239218 327.37125 
L 195.239218 305.315554 
L 190.062419 305.315554 
z
" clip-path="url(#pb6d60c0d90)" style="fill: #ff7f0e; opacity: 0.45"/>
   </g>
   <g id="patch_57">
    <path d="M 195.239218 327.37125 
L 200.416018 327.37125 
L 200.416018 327.37125 
L 195.239218 327.37125 
z
" clip-path="url(#pb6d60c0d90)" style="fill: #ff7f0e; opacity: 0.45"/>
   </g>
   <g id="patch_58">
    <path d="M 200.416018 327.37125 
L 205.592818 327.37125 
L 205.592818 327.37125 
L 200.416018 327.37125 
z
" clip-path="url(#pb6d60c0d90)" style="fill: #ff7f0e; opacity: 0.45"/>
   </g>
   <g id="patch_59">
    <path d="M 205.592818 327.37125 
L 210.769618 327.37125 
L 210.769618 327.37125 
L 205.592818 327.37125 
z
" clip-path="url(#pb6d60c0d90)" style="fill: #ff7f0e; opacity: 0.45"/>
   </g>
   <g id="patch_60">
    <path d="M 210.769618 327.37125 
L 215.946418 327.37125 
L 215.946418 327.37125 
L 210.769618 327.37125 
z
" clip-path="url(#pb6d60c0d90)" style="fill: #ff7f0e; opacity: 0.45"/>
   </g>
   <g id="patch_61">
    <path d="M 215.946418 327.37125 
L 221.123217 327.37125 
L 221.123217 327.37125 
L 215.946418 327.37125 
z
" clip-path="url(#pb6d60c0d90)" style="fill: #ff7f0e; opacity: 0.45"/>
   </g>
   <g id="patch_62">
    <path d="M 221.123217 327.37125 
L 226.300017 327.37125 
L 226.300017 326.63606 
L 221.123217 326.63606 
z
" clip-path="url(#pb6d60c0d90)" style="fill: #ff7f0e; opacity: 0.45"/>
   </g>
   <g id="patch_63">
    <path d="M 80.364035 327.37125 
L 95.26995 327.37125 
L 95.26995 222.239098 
L 80.364035 222.239098 
z
" clip-path="url(#pb6d60c0d90)" style="fill: #2ca02c; opacity: 0.45"/>
   </g>
   <g id="patch_64">
    <path d="M 95.26995 327.37125 
L 110.175864 327.37125 
L 110.175864 97.25682 
L 95.26995 97.25682 
z
" clip-path="url(#pb6d60c0d90)" style="fill: #2ca02c; opacity: 0.45"/>
   </g>
   <g id="patch_65">
    <path d="M 110.175864 327.37125 
L 125.081779 327.37125 
L 125.081779 105.343908 
L 110.175864 105.343908 
z
" clip-path="url(#pb6d60c0d90)" style="fill: #2ca02c; opacity: 0.45"/>
   </g>
   <g id="patch_66">
    <path d="M 125.081779 327.37125 
L 139.987694 327.37125 
L 139.987694 139.162642 
L 125.081779 139.162642 
z
" clip-path="url(#pb6d60c0d90)" style="fill: #2ca02c; opacity: 0.45"/>
   </g>
   <g id="patch_67">
    <path d="M 139.987694 327.37125 
L 154.893609 327.37125 
L 154.893609 156.807199 
L 139.987694 156.807199 
z
" clip-path="url(#pb6d60c0d90)" style="fill: #2ca02c; opacity: 0.45"/>
   </g>
   <g id="patch_68">
    <path d="M 154.893609 327.37125 
L 169.799523 327.37125 
L 169.799523 143.573782 
L 154.893609 143.573782 
z
" clip-path="url(#pb6d60c0d90)" style="fill: #2ca02c; opacity: 0.45"/>
   </g>
   <g id="patch_69">
    <path d="M 169.799523 327.37125 
L 184.705438 327.37125 
L 184.705438 203.124161 
L 169.799523 203.124161 
z
" clip-path="url(#pb6d60c0d90)" style="fill: #2ca02c; opacity: 0.45"/>
   </g>
   <g id="patch_70">
    <path d="M 184.705438 327.37125 
L 199.611353 327.37125 
L 199.611353 203.124161 
L 184.705438 203.124161 
z
" clip-path="url(#pb6d60c0d90)" style="fill: #2ca02c; opacity: 0.45"/>
   </g>
   <g id="patch_71">
    <path d="M 199.611353 327.37125 
L 214.517268 327.37125 
L 214.517268 245.765174 
L 199.611353 245.765174 
z
" clip-path="url(#pb6d60c0d90)" style="fill: #2ca02c; opacity: 0.45"/>
   </g>
   <g id="patch_72">
    <path d="M 214.517268 327.37125 
L 229.423182 327.37125 
L 229.423182 256.793022 
L 214.517268 256.793022 
z
" clip-path="url(#pb6d60c0d90)" style="fill: #2ca02c; opacity: 0.45"/>
   </g>
   <g id="patch_73">
    <path d="M 229.423182 327.37125 
L 244.329097 327.37125 
L 244.329097 36.97125 
L 229.423182 36.97125 
z
" clip-path="url(#pb6d60c0d90)" style="fill: #2ca02c; opacity: 0.45"/>
   </g>
   <g id="patch_74">
    <path d="M 244.329097 327.37125 
L 259.235012 327.37125 
L 259.235012 294.287706 
L 244.329097 294.287706 
z
" clip-path="url(#pb6d60c0d90)" style="fill: #2ca02c; opacity: 0.45"/>
   </g>
   <g id="patch_75">
    <path d="M 259.235012 327.37125 
L 274.140927 327.37125 
L 274.140927 310.461883 
L 259.235012 310.461883 
z
" clip-path="url(#pb6d60c0d90)" style="fill: #2ca02c; opacity: 0.45"/>
   </g>
   <g id="patch_76">
    <path d="M 274.140927 327.37125 
L 289.046841 327.37125 
L 289.046841 312.667453 
L 274.140927 312.667453 
z
" clip-path="url(#pb6d60c0d90)" style="fill: #2ca02c; opacity: 0.45"/>
   </g>
   <g id="patch_77">
    <path d="M 289.046841 327.37125 
L 303.952756 327.37125 
L 303.952756 311.932263 
L 289.046841 311.932263 
z
" clip-path="url(#pb6d60c0d90)" style="fill: #2ca02c; opacity: 0.45"/>
   </g>
   <g id="patch_78">
    <path d="M 303.952756 327.37125 
L 318.858671 327.37125 
L 318.858671 308.256313 
L 303.952756 308.256313 
z
" clip-path="url(#pb6d60c0d90)" style="fill: #2ca02c; opacity: 0.45"/>
   </g>
   <g id="patch_79">
    <path d="M 318.858671 327.37125 
L 333.764586 327.37125 
L 333.764586 310.461883 
L 318.858671 310.461883 
z
" clip-path="url(#pb6d60c0d90)" style="fill: #2ca02c; opacity: 0.45"/>
   </g>
   <g id="patch_80">
    <path d="M 333.764586 327.37125 
L 348.6705 327.37125 
L 348.6705 311.932263 
L 333.764586 311.932263 
z
" clip-path="url(#pb6d60c0d90)" style="fill: #2ca02c; opacity: 0.45"/>
   </g>
   <g id="patch_81">
    <path d="M 348.6705 327.37125 
L 363.576415 327.37125 
L 363.576415 316.343402 
L 348.6705 316.343402 
z
" clip-path="url(#pb6d60c0d90)" style="fill: #2ca02c; opacity: 0.45"/>
   </g>
   <g id="patch_82">
    <path d="M 363.576415 327.37125 
L 378.48233 327.37125 
L 378.48233 322.224921 
L 363.576415 322.224921 
z
" clip-path="url(#pb6d60c0d90)" style="fill: #2ca02c; opacity: 0.45"/>
   </g>
   <g id="patch_83">
    <path d="M 378.48233 327.37125 
L 393.388245 327.37125 
L 393.388245 317.813782 
L 378.48233 317.813782 
z
" clip-path="url(#pb6d60c0d90)" style="fill: #2ca02c; opacity: 0.45"/>
   </g>
   <g id="patch_84">
    <path d="M 393.388245 327.37125 
L 408.294159 327.37125 
L 408.294159 325.90087 
L 393.388245 325.90087 
z
" clip-path="url(#pb6d60c0d90)" style="fill: #2ca02c; opacity: 0.45"/>
   </g>
   <g id="patch_85">
    <path d="M 408.294159 327.37125 
L 423.200074 327.37125 
L 423.200074 322.960111 
L 408.294159 322.960111 
z
" clip-path="url(#pb6d60c0d90)" style="fill: #2ca02c; opacity: 0.45"/>
   </g>
   <g id="patch_86">
    <path d="M 423.200074 327.37125 
L 438.105989 327.37125 
L 438.105989 322.960111 
L 423.200074 322.960111 
z
" clip-path="url(#pb6d60c0d90)" style="fill: #2ca02c; opacity: 0.45"/>
   </g>
   <g id="patch_87">
    <path d="M 438.105989 327.37125 
L 453.011904 327.37125 
L 453.011904 325.16568 
L 438.105989 325.16568 
z
" clip-path="url(#pb6d60c0d90)" style="fill: #2ca02c; opacity: 0.45"/>
   </g>
   <g id="patch_88">
    <path d="M 453.011904 327.37125 
L 467.917818 327.37125 
L 467.917818 308.991503 
L 453.011904 308.991503 
z
" clip-path="url(#pb6d60c0d90)" style="fill: #2ca02c; opacity: 0.45"/>
   </g>
   <g id="patch_89">
    <path d="M 467.917818 327.37125 
L 482.823733 327.37125 
L 482.823733 325.16568 
L 467.917818 325.16568 
z
" clip-path="url(#pb6d60c0d90)" style="fill: #2ca02c; opacity: 0.45"/>
   </g>
   <g id="patch_90">
    <path d="M 482.823733 327.37125 
L 497.729648 327.37125 
L 497.729648 324.430491 
L 482.823733 324.430491 
z
" clip-path="url(#pb6d60c0d90)" style="fill: #2ca02c; opacity: 0.45"/>
   </g>
   <g id="patch_91">
    <path d="M 497.729648 327.37125 
L 512.635563 327.37125 
L 512.635563 327.37125 
L 497.729648 327.37125 
z
" clip-path="url(#pb6d60c0d90)" style="fill: #2ca02c; opacity: 0.45"/>
   </g>
   <g id="patch_92">
    <path d="M 512.635563 327.37125 
L 527.541477 327.37125 
L 527.541477 326.63606 
L 512.635563 326.63606 
z
" clip-path="url(#pb6d60c0d90)" style="fill: #2ca02c; opacity: 0.45"/>
   </g>
   <g id="matplotlib.axis_1">
    <g id="xtick_1">
     <g id="line2d_1">
      <defs>
       <path id="m99f0828f62" d="M 0 0 
L 0 3.5 
" style="stroke: #000000; stroke-width: 0.8"/>
      </defs>
      <g>
       <use xlink:href="#m99f0828f62" x="70.736129" y="327.37125" style="stroke: #000000; stroke-width: 0.8"/>
      </g>
     </g>
     <g id="text_1">
      <text style="font-size: 10px; font-family: 'Hiragino Sans'; text-anchor: middle" x="70.736129" y="342.080625" transform="rotate(-0 70.736129 342.080625)">0</text>
     </g>
    </g>
    <g id="xtick_2">
     <g id="line2d_2">
      <g>
       <use xlink:href="#m99f0828f62" x="157.148327" y="327.37125" style="stroke: #000000; stroke-width: 0.8"/>
      </g>
     </g>
     <g id="text_2">
      <text style="font-size: 10px; font-family: 'Hiragino Sans'; text-anchor: middle" x="157.148327" y="342.080625" transform="rotate(-0 157.148327 342.080625)">2</text>
     </g>
    </g>
    <g id="xtick_3">
     <g id="line2d_3">
      <g>
       <use xlink:href="#m99f0828f62" x="243.560526" y="327.37125" style="stroke: #000000; stroke-width: 0.8"/>
      </g>
     </g>
     <g id="text_3">
      <text style="font-size: 10px; font-family: 'Hiragino Sans'; text-anchor: middle" x="243.560526" y="342.080625" transform="rotate(-0 243.560526 342.080625)">4</text>
     </g>
    </g>
    <g id="xtick_4">
     <g id="line2d_4">
      <g>
       <use xlink:href="#m99f0828f62" x="329.972724" y="327.37125" style="stroke: #000000; stroke-width: 0.8"/>
      </g>
     </g>
     <g id="text_4">
      <text style="font-size: 10px; font-family: 'Hiragino Sans'; text-anchor: middle" x="329.972724" y="342.080625" transform="rotate(-0 329.972724 342.080625)">6</text>
     </g>
    </g>
    <g id="xtick_5">
     <g id="line2d_5">
      <g>
       <use xlink:href="#m99f0828f62" x="416.384922" y="327.37125" style="stroke: #000000; stroke-width: 0.8"/>
      </g>
     </g>
     <g id="text_5">
      <text style="font-size: 10px; font-family: 'Hiragino Sans'; text-anchor: middle" x="416.384922" y="342.080625" transform="rotate(-0 416.384922 342.080625)">8</text>
     </g>
    </g>
    <g id="xtick_6">
     <g id="line2d_6">
      <g>
       <use xlink:href="#m99f0828f62" x="502.79712" y="327.37125" style="stroke: #000000; stroke-width: 0.8"/>
      </g>
     </g>
     <g id="text_6">
      <text style="font-size: 10px; font-family: 'Hiragino Sans'; text-anchor: middle" x="502.79712" y="342.080625" transform="rotate(-0 502.79712 342.080625)">10</text>
     </g>
    </g>
    <g id="text_7">
     <text style="font-size: 10px; font-family: 'Hiragino Sans'; text-anchor: middle" x="299.26875" y="355.97125" transform="rotate(-0 299.26875 355.97125)">Nearest retained charger-candidate distance (km, road-adjusted proxy)</text>
    </g>
   </g>
   <g id="matplotlib.axis_2">
    <g id="ytick_1">
     <g id="line2d_7">
      <defs>
       <path id="mbb4ad3cddc" d="M 0 0 
L -3.5 0 
" style="stroke: #000000; stroke-width: 0.8"/>
      </defs>
      <g>
       <use xlink:href="#mbb4ad3cddc" x="48.16875" y="327.37125" style="stroke: #000000; stroke-width: 0.8"/>
      </g>
     </g>
     <g id="text_8">
      <text style="font-size: 10px; font-family: 'Hiragino Sans'; text-anchor: end" x="41.16875" y="331.225937" transform="rotate(-0 41.16875 331.225937)">0</text>
     </g>
    </g>
    <g id="ytick_2">
     <g id="line2d_8">
      <g>
       <use xlink:href="#mbb4ad3cddc" x="48.16875" y="290.611756" style="stroke: #000000; stroke-width: 0.8"/>
      </g>
     </g>
     <g id="text_9">
      <text style="font-size: 10px; font-family: 'Hiragino Sans'; text-anchor: end" x="41.16875" y="294.466444" transform="rotate(-0 41.16875 294.466444)">50</text>
     </g>
    </g>
    <g id="ytick_3">
     <g id="line2d_9">
      <g>
       <use xlink:href="#mbb4ad3cddc" x="48.16875" y="253.852263" style="stroke: #000000; stroke-width: 0.8"/>
      </g>
     </g>
     <g id="text_10">
      <text style="font-size: 10px; font-family: 'Hiragino Sans'; text-anchor: end" x="41.16875" y="257.70695" transform="rotate(-0 41.16875 257.70695)">100</text>
     </g>
    </g>
    <g id="ytick_4">
     <g id="line2d_10">
      <g>
       <use xlink:href="#mbb4ad3cddc" x="48.16875" y="217.092769" style="stroke: #000000; stroke-width: 0.8"/>
      </g>
     </g>
     <g id="text_11">
      <text style="font-size: 10px; font-family: 'Hiragino Sans'; text-anchor: end" x="41.16875" y="220.947456" transform="rotate(-0 41.16875 220.947456)">150</text>
     </g>
    </g>
    <g id="ytick_5">
     <g id="line2d_11">
      <g>
       <use xlink:href="#mbb4ad3cddc" x="48.16875" y="180.333275" style="stroke: #000000; stroke-width: 0.8"/>
      </g>
     </g>
     <g id="text_12">
      <text style="font-size: 10px; font-family: 'Hiragino Sans'; text-anchor: end" x="41.16875" y="184.187963" transform="rotate(-0 41.16875 184.187963)">200</text>
     </g>
    </g>
    <g id="ytick_6">
     <g id="line2d_12">
      <g>
       <use xlink:href="#mbb4ad3cddc" x="48.16875" y="143.573782" style="stroke: #000000; stroke-width: 0.8"/>
      </g>
     </g>
     <g id="text_13">
      <text style="font-size: 10px; font-family: 'Hiragino Sans'; text-anchor: end" x="41.16875" y="147.428469" transform="rotate(-0 41.16875 147.428469)">250</text>
     </g>
    </g>
    <g id="ytick_7">
     <g id="line2d_13">
      <g>
       <use xlink:href="#mbb4ad3cddc" x="48.16875" y="106.814288" style="stroke: #000000; stroke-width: 0.8"/>
      </g>
     </g>
     <g id="text_14">
      <text style="font-size: 10px; font-family: 'Hiragino Sans'; text-anchor: end" x="41.16875" y="110.668975" transform="rotate(-0 41.16875 110.668975)">300</text>
     </g>
    </g>
    <g id="ytick_8">
     <g id="line2d_14">
      <g>
       <use xlink:href="#mbb4ad3cddc" x="48.16875" y="70.054794" style="stroke: #000000; stroke-width: 0.8"/>
      </g>
     </g>
     <g id="text_15">
      <text style="font-size: 10px; font-family: 'Hiragino Sans'; text-anchor: end" x="41.16875" y="73.909482" transform="rotate(-0 41.16875 73.909482)">350</text>
     </g>
    </g>
    <g id="ytick_9">
     <g id="line2d_15">
      <g>
       <use xlink:href="#mbb4ad3cddc" x="48.16875" y="33.295301" style="stroke: #000000; stroke-width: 0.8"/>
      </g>
     </g>
     <g id="text_16">
      <text style="font-size: 10px; font-family: 'Hiragino Sans'; text-anchor: end" x="41.16875" y="37.149988" transform="rotate(-0 41.16875 37.149988)">400</text>
     </g>
    </g>
    <g id="text_17">
     <text style="font-size: 10px; font-family: 'Hiragino Sans'; text-anchor: middle" x="14.909375" y="174.91125" transform="rotate(-90 14.909375 174.91125)">Route-condition count</text>
    </g>
   </g>
   <g id="patch_93">
    <path d="M 48.16875 327.37125 
L 48.16875 22.45125 
" style="fill: none; stroke: #000000; stroke-width: 0.8; stroke-linejoin: miter; stroke-linecap: square"/>
   </g>
   <g id="patch_94">
    <path d="M 550.36875 327.37125 
L 550.36875 22.45125 
" style="fill: none; stroke: #000000; stroke-width: 0.8; stroke-linejoin: miter; stroke-linecap: square"/>
   </g>
   <g id="patch_95">
    <path d="M 48.16875 327.37125 
L 550.36875 327.37125 
" style="fill: none; stroke: #000000; stroke-width: 0.8; stroke-linejoin: miter; stroke-linecap: square"/>
   </g>
   <g id="patch_96">
    <path d="M 48.16875 22.45125 
L 550.36875 22.45125 
" style="fill: none; stroke: #000000; stroke-width: 0.8; stroke-linejoin: miter; stroke-linecap: square"/>
   </g>
   <g id="text_18">
    <text style="font-size: 12px; font-family: 'Hiragino Sans'; text-anchor: middle" x="299.26875" y="16.45125" transform="rotate(-0 299.26875 16.45125)">Nearest charger-candidate distance distribution</text>
   </g>
   <g id="legend_1">
    <g id="patch_97">
     <path d="M 447.029688 74.729375 
L 543.36875 74.729375 
Q 545.36875 74.729375 545.36875 72.729375 
L 545.36875 29.45125 
Q 545.36875 27.45125 543.36875 27.45125 
L 447.029688 27.45125 
Q 445.029688 27.45125 445.029688 29.45125 
L 445.029688 72.729375 
Q 445.029688 74.729375 447.029688 74.729375 
z
" style="fill: #ffffff; opacity: 0.8; stroke: #cccccc; stroke-linejoin: miter"/>
    </g>
    <g id="patch_98">
     <path d="M 449.029688 39.160625 
L 469.029688 39.160625 
L 469.029688 32.160625 
L 449.029688 32.160625 
z
" style="fill: #1f77b4; opacity: 0.45"/>
    </g>
    <g id="text_19">
     <text style="font-size: 10px; font-family: 'Hiragino Sans'; text-anchor: start" x="477.029688" y="39.160625" transform="rotate(-0 477.029688 39.160625)">balanced</text>
    </g>
    <g id="patch_99">
     <path d="M 449.029688 53.92 
L 469.029688 53.92 
L 469.029688 46.92 
L 449.029688 46.92 
z
" style="fill: #ff7f0e; opacity: 0.45"/>
    </g>
    <g id="text_20">
     <text style="font-size: 10px; font-family: 'Hiragino Sans'; text-anchor: start" x="477.029688" y="53.92" transform="rotate(-0 477.029688 53.92)">broad</text>
    </g>
    <g id="patch_100">
     <path d="M 449.029688 68.679375 
L 469.029688 68.679375 
L 469.029688 61.679375 
L 449.029688 61.679375 
z
" style="fill: #2ca02c; opacity: 0.45"/>
    </g>
    <g id="text_21">
     <text style="font-size: 10px; font-family: 'Hiragino Sans'; text-anchor: start" x="477.029688" y="68.679375" transform="rotate(-0 477.029688 68.679375)">conservative</text>
    </g>
   </g>
  </g>
 </g>
 <defs>
  <clipPath id="pb6d60c0d90">
   <rect x="48.16875" y="22.45125" width="502.2" height="304.92"/>
  </clipPath>
 </defs>
</svg>
